<?xml version="1.0" encoding="utf-8"?>
<!-- Generator: Adobe Illustrator 21.0.0, SVG Export Plug-In . SVG Version: 6.00 Build 0)  -->
<svg version="1.1" id="圖層_1" xmlns="http://www.w3.org/2000/svg" xmlns:xlink="http://www.w3.org/1999/xlink" x="0px" y="0px"
	 viewBox="0 0 254.1 232.9" style="enable-background:new 0 0 254.1 232.9;" xml:space="preserve">
<style type="text/css">
	.st0{fill:none;stroke:#000000;stroke-miterlimit:10;}
	.st1{fill-rule:evenodd;clip-rule:evenodd;}
</style>
<g>
	<g>
		<path class="st0" d="M116.6,125.4"/>
	</g>
</g>
<g>
	<g>
		<g>
			<path class="st1" d="M132.3,208.8c-0.2,0.7-0.6-0.5-0.7,0.7l-0.6-1c0-0.6,1,0.5,0.5-0.6C131.7,207.5,132.1,208.4,132.3,208.8z
				 M135.2,210.5c-0.1,0.3-0.4-0.4-0.5,0.1c-0.4-0.3-0.1-1.1-0.2-1.3c-0.2-0.8-1.2-1.3-0.7-2.2C134.6,208.2,134.9,209.3,135.2,210.5
				z M132.2,209.5l0.9,1.7C132.9,212.2,131.7,210.6,132.2,209.5z M143.1,221.4c-0.4,0-0.4,0.4-0.9-1.1c-0.3-0.5-0.2,1.3-0.4,1.2
				l-1.9-3.2c-0.6-1.3,0.4,0,0.6,0.5c0-1.1-0.6-1.9-0.4-3c-0.3-0.5-0.2,1.2-0.5,1.1c-1.1-1.5-1.1-3.4-1.3-5.1
				c-0.5-0.3-1.1-1.4-1.3-2.7c0.8,0.5,1.8,4,2.6,5.9c-0.1-0.6-0.4-1.1-0.2-1.8c0.6,1.2,1.4,2.4,1.3,4.1c1,2.7,1.7,1.4,2.5,2.9
				c0-0.1,0.1,1.7,0.3,1.5c0-1.3-0.6-1.9-0.3-3.4c0.5,1.9,0.8,0.8,1.2,1.6c0.3,0.5,0.5,1.9,1,2.2c0,0.5-0.2,0-0.3-0.1
				c-0.5,0.3-0.3,3.9-1.4,2.3c0.5,0.2,0.3-2,0.7-2.1c0-0.6-0.3-0.9-0.5-1.4c-0.1,0.9-0.2,1-0.4,2.7
				C143.1,222.9,143.1,222.1,143.1,221.4z M136,215.7c-0.1,1.5-0.9,0.2-1.1-0.9C135.1,214.1,135.6,214.9,136,215.7z M140.3,223.1
				l-0.4-0.7c-0.7-0.7-0.6-1.7-0.9-2.5c-1.7-3.2,0.3,0.3,0.6,0.2C139.8,221.1,140.4,221.9,140.3,223.1z M137.3,218.8
				c-0.4-0.5-0.5-1.2-0.7-1.7c0.3-0.3,1,1.5,1-0.6C137.9,217.4,137.4,218.8,137.3,218.8z M135.6,211.2c-0.5-1,0.2-1.2,0.5-0.1
				c0-1.2-1.2-2-1.3-3.2c0.5-0.1,0.6,1.2,1.3,1.8c-0.1,1,0.5,1.7,0.2,2.8C135.9,212.2,135.9,210.3,135.6,211.2z M131.7,205.3
				c0.2-1.7,1.8,1.1,1.3,2.2C132.5,206.2,132.3,205.8,131.7,205.3z M65,75.1c-0.3-1.8-0.4-0.1-0.6,0.1c-0.2-1,0-2.4,0.3-1.1
				c0.1-0.5-0.4-1.7-0.3-2.3c0.4,0.3,0.4-1.3,0.7-1.3c0,0,0.3,1.4,0.3,1.5c0.1,0.2,0.4-1.9,0.5,0.2c-0.2,1.3-0.5,0.1-0.8-0.3
				c-0.2,0.6-0.3,1.3-0.2,2.2c0.6,1.7,0.2-0.7,0.4-1.2c0.4,0.8,0.7,0,1-1.2c0.3-1.1,0.7-2.5,1-2.3c-0.9,3.5-2.1,6.9-3.2,9.3
				C64.1,77,65.3,76.9,65,75.1z M64.9,86.6c0.6,1.8-0.1,1.4,0,2.4c0.1,0.6,0.1,0.4-0.2,0.7C63.5,87.6,64.9,86.8,64.9,86.6z
				 M65.8,86.3c-0.1-0.4-0.3-1.4-0.4-1.2c-0.2,0.1,0.1,1.2,0.2,1c0.3,1.5-0.4,0.3-0.4,1.3l-0.3-0.8c0.3-1.6,0.2-4.3,0.6-5.4
				c0.2-0.6,0.6,0.7,0.6-1c0.2,0.4,0.2,0.7,0.4,1.4c0.4,1.1,0.6,0.2,0.8,0.1c0.5,1.7-0.6,0.8-0.1,1.9c0.3,1.7-0.5-0.9-0.7-1.2
				c0.1,1.1-0.4-0.4-0.4-0.4c-0.1,0-0.1,0.8-0.2,0.7c-0.1,0-0.4-1.3-0.4-0.5c0,0.3,0.1,0.6,0.3,0.9c0.4,0.8,0.1-0.3,0.5,0
				c0,0,0.2,1,0.2,1.1c0.2,0.1,0.1-1.7,0.5,0.1C66.6,85.4,66.2,85.6,65.8,86.3z M65.5,84.8c0.2-0.2,0.5,0.9,0.5,0
				C65.7,83.3,65.2,83.7,65.5,84.8z M134.5,207.3c-0.7-1.2-0.4-2.6-1.3-3.7c0.7-0.2,1.1,0.6,1.3,2.4c0.5-0.3,1.4,0.3,1.6,2.3
				c0.3,1.5-0.4-1.1-0.8-1.5C134.9,206.3,134.7,207.1,134.5,207.3z M64.8,92c-0.1,0.8-1.2,0.1-1-1.1C64.3,92.6,64.3,90.8,64.8,92z
				 M64.1,88.4l-0.3,0.9C63.2,88.6,63.7,87.1,64.1,88.4z M130.6,206.2l0.6,1l-0.4,1.3l-0.6-1C130.7,207.4,130.3,207,130.6,206.2z
				 M67.8,82.8c0.3,1.4,0,1.7,0.3,3.1c-0.4,0.8-0.6,2.5-1.1,2.5c-0.1-2,0.7-1.7,0.8-3.1C67.9,84.5,67.7,83.3,67.8,82.8z M90.2,127.1
				c-1.5-0.2-1.6-1.7-2.3-3.4c0.8-0.1,0.6,1.1,1,1.8C89.3,126.1,89.9,126.4,90.2,127.1z M145.1,227.2c-0.8-1.3,0.4,2.6-0.5,1
				c0.1,0.7,0.5,1.3,0.4,2.1c-0.4-0.2-0.6-1.4-1-2.1c-0.3-0.7-1.1-1.4-1-2.6c0.4,0.6,0.7,1.3,1,2.1c0.4,0.7,0-1.6,0-1.4
				c0.1-0.7,0.8,1.4,0.5-0.9c0.9,2.6,1,0.7,1.7,2.8c-0.1,0.2-0.2,0.5-0.1,1.2C145.8,228.5,145.1,228.2,145.1,227.2z M69.2,82.2
				c0.2,1.7,0,1.5-0.3,0.8c0,0.1,0.1,0.8,0.2,1.2c-0.3-0.8-0.1,1.1-0.2,1.4c0,0.2-0.1,1.2-0.4-0.5c0.4,0.1,0-2.3,0.1-2.8
				C68.7,81.8,69,83,69.2,82.2z M32.4,177.9c-1-0.1-0.5-2.8,0.7-2c-0.2,0.5-0.7,0-0.9,0.7c-0.2,0.6,0.7,0,0.9-0.2
				c0.5-1-0.9-1.1-0.3-2.1c0.7,0.5,1.1,1.7,0.6,2.6C33.1,177.5,32.7,177.3,32.4,177.9z M41.5,158.4c0.1-0.6,0-1.7,1-1.3
				c-0.3,0.4-0.8,0.2-0.9,1.1c0.7,0.5,0.7-0.9,1.4-0.3c-0.4,0.6-1.8,2-0.7,1.9c0.5,0.6-0.6,1.3-1.1,1c0-0.3,0.4-0.7,0.4-1
				c0-0.2-0.4-0.4-0.4-0.4C41.1,159.1,41.4,158.7,41.5,158.4z M37.2,160.9c-0.2-0.9,0.9-2.5,1.1-3.7c0.3,0.5,0.5,0.9,1.4,1.1
				c-0.1,0.9-0.8,0.1-1.3,0.1c-0.5,0.6,0.3,0.5,0.5,0.7c0.1,0.2,0,0.7-0.2,0.5c0.3,0.2,0.6,0.3,1,0.1c0.2-0.1-0.1-0.4-0.1-0.3
				c0.2-0.2,1.4-0.6,1.2-1.2c0.4,0.5,0.1,1.5-0.5,1.4c-0.5,1.3,0.2,1.5-0.7,2.5c-0.6-0.3-0.1-1,0.1-1.6l-0.7-0.3
				c-0.3,1,0.4,1.3-0.5,2c-0.1,0.3,0.3,0.4,0.6,0.5c-0.1,0.7-0.6,0.3-0.8,0.8c-0.3,0.7,0.6,0.8-0.1,1.6c-0.7-0.3-0.6-1-0.3-1.8
				c-0.1-1-0.6-1.1-1.2-1.6c0-1,1,0.3,1-0.7C37.7,160.8,37.3,160.7,37.2,160.9z M36.2,176c0.2,0.5-0.4,0.4-0.7,0.8
				c-0.2,0.4-0.1,0.8-0.2,1.1c-0.4,0.6-1.1,0.7-1.4,1.3c-0.9-1.2,1.3-1.4,1-2.7C35.4,176.5,35.9,176.3,36.2,176z M37.1,172.4
				c0.5,0.1,0.2,1.4-0.3,1.3c0,0.7,0.4,1.2-0.2,2.2c0.2-1.4-0.7-0.8-1.3,0c-0.7-1.6,1.3-1.8,1.3-3.4C36.8,172.6,37,172.5,37.1,172.4
				z M44.3,150.4l-0.2,0.7c-0.5-0.3-1.1-0.6-0.8-1.4C44,149.7,43.7,150.3,44.3,150.4z M41.3,149.6c-0.3,0.4-0.8,0.2-0.9,1.1
				c0.1,0.3,0.4,0.4,0.2,0.9c-0.3-0.1-0.6-0.3-0.8,0C39.8,150.9,40,149.3,41.3,149.6z M40,151.9c0.8,0.6-0.5,1.1-0.5,2.3
				c1.2-0.1-0.7,1.6-0.4,2.6c-1-0.2-0.1-1.5,0-2.2C39.3,153.5,39.3,152.3,40,151.9z M41.3,151.8c0.2,0.1,0.1,0.4,0.1,0.6
				c0.4,0.1,0.7,0,0.9-0.2c0.3,0.1-0.2,1.5,0.5,0.7c0.8,0.4-0.5,0.8-0.6,0.9c-0.2,0.3-0.1,0.7-0.3,1c-0.1,0.1-0.5,0-0.5,0.1
				c-0.3,0.3-0.2,0.9-0.7,0.6c-0.2,0.4-0.2,1.3-0.8,0.8c0.5-0.5,0.7-1.4,1.2-2c0.3-0.4,1.7-0.4,1-1.3c-0.6,0.3-0.7,1.5-1.6,1.1
				C40.5,152.6,41.5,153,41.3,151.8z M34.4,178.9c0.3-0.1,0.5-0.1,0.4,0.2c-0.3,1.1-1.7,3.2-2.5,4.9c-0.3,0.9-0.8,0.6-0.2-0.1
				C32.8,182.1,33.3,180.3,34.4,178.9z M43.7,154.3c0.2,0.6,1.1,0.7,0.7,1.6c-0.1-0.8-1.4,0.2-1-0.9c-0.5,0-0.5,1.2-1.3,0.7
				c1-0.7,0.7-2.1,1.7-3.3c0.4,0.8,0.3-0.3,1,0.1C44.7,153.7,43.9,153.2,43.7,154.3z M45.8,155.6c0.8-0.6-0.8,1.7-0.2,1.9
				c-0.6,0.6-0.1,1.1-0.8,1.6c0.2-1-0.1-2.5,0.3-3C45.3,157.1,45.5,156.5,45.8,155.6z M35.6,171.1c-0.3,0.4,0.2,0.7,0.1,0.9
				c-0.2,0.6-0.7,0-1.1,0.7c-0.5-0.9-1.2-0.4-0.9-1.5c0.7,0.1,0.5,0.7,1.2,0.8c0.4-0.6-0.2-1.7-0.8-1.2c-0.2-0.2,0-0.3,0.1-0.2
				l0.2-0.5c0.8,0.1,0.1,0.8,0.9,1c0.2-1.1-0.1-1.5,0.7-2.2c0.6,0.3,0.6,0.9,0.7,1.4C36.4,171,35.9,170.6,35.6,171.1z M22.9,199.4
				c0.7-0.1-1.1,1.8-1.4,2.5C20.8,201,22.4,200.5,22.9,199.4z M24.2,188.3c-0.6,0.1-1,0.6-1.4,1.5c-0.6-0.5,0.2-1.9,0.7-1.7
				c-0.4-0.4,0.2-1,0-1.5c-1.1,0.3-1.1,2.2-1.2,2.5c0,0-0.4-0.2-0.4-0.2c-0.1,0.5,0.1,1,0.3,1.4c-0.2,0.4-0.5,0.5-0.8,0.4
				c-0.2,0.6-0.4,1.4-0.7,1.6c-0.2,1-0.9-0.5-1.1,0.5c-0.1,0.3,0.3,0.2,0.5,0c0.4,0.4-0.7,1.3-0.9,1.8c-0.1-0.4,0.2-1,0.1-1.5
				c-0.2-0.1-0.3,0.1-0.5,0c-0.2,0.5,0,1-0.1,1.4c-0.5-0.6-1.6,1.3-2,1.7c0-0.5,0-1.1,0.2-1.6c-0.3-0.1-0.5,0.4-0.8,0.7
				c-0.1-0.5,0.2-1.4,0.7-2.3c0.4-0.9,0.9-1.9,1.4-2.5c0.2-0.3,0.3-0.3,0.7-0.2c0-0.3-0.3-0.4-0.1-0.7c0.2-0.5,0.6-0.1,0.7-0.2
				c0.2-0.3-0.1-0.6,0-0.9c0.2-0.5,1.1-0.9,1.4-1.5c0.6-1,0.8-2,1.4-2.9c0.5-0.8,1.4-1.4,2.1-2.3c0.2-0.3,0.1-0.7,0.1-0.8
				c0.8-1.5,2.3-2.6,2.2-4.2c0.3-0.1,0.5-0.2,0.8-0.5c0.4,0.4-0.7,1.4,0.3,1.6c0-0.8,0-1.6-0.2-2.3c1.3-0.7,1.5-3,2.6-4.3
				c0.4-0.5,0.7-0.3,1.1-0.6c0.6-0.4,0.7-1.4,1.4-1.3c0.9,0.6-0.3,1.5-0.6,2c-0.3,0.7-0.6,1.6-1,2.1c-0.2,0.2,0,0.6,0,0.6
				c-0.1,0.2-0.7,0.4-0.8,0.5c-0.1,0.3-0.1,0.9-0.3,1.3c-0.4,0.8-0.8,0.9-0.7,1.9c-0.7-0.3-0.3-1.3-1.1-0.5c-0.1,0.4,0.3,0,0.6,0.3
				c0,0.6-0.4,1.4,0.2,1.8c-1.2,1.6-1.6,2.9-2.9,3.9c-0.3,1-0.2,1.8,0.3,2.5c-0.5,0.5-1,1-1.3,1.9l-0.8-0.5
				C23.7,187.6,23.6,188.1,24.2,188.3z M27.9,180c-0.3-0.1-0.5,0.1-0.7,0.2c1,0.5,0.7-0.4,1.1-1.1c-0.5,0-1.1-0.5-1.5-0.2
				C27.1,179.6,28,179,27.9,180z M26.7,181.3c0.5-0.6-0.3-0.9-0.1-1.5c0.2,0.1,0.5-0.3,0.2-0.5c-0.2,1-1-0.1-1.2,0.8
				C26.6,180.4,26,181.1,26.7,181.3z M25.4,182.7c0.7,0.2,1.1-0.5,1.6-0.9c-0.5-0.5-0.7,0-1.2-0.3C25.4,181.9,25.9,182.1,25.4,182.7
				z M18.8,191.3c-0.1,0.1-0.3,0.1-0.5,0c-0.2,0.6-0.5,1.2,0.1,1.6C18.8,192.2,19,191.7,18.8,191.3z M23.2,185.2
				c0.2-0.8,1.7-1.9,1-1.8C23.9,183.6,22.5,185.5,23.2,185.2z M24.3,186.7c1.3,0.6,1.4-2.2,0.7-2.8C24.1,185,25.4,185.5,24.3,186.7z
				 M64.2,92.6c-0.3,0.3,0.6,1.4,0.3,1.7c-0.5-0.9-0.3-1.4-1.1-2.5C63.5,91.5,63.8,91.8,64.2,92.6z M5.2,217.2
				c-0.5-1,0.9-0.9,1.4-1.8C7.4,215.2,5.6,216.7,5.2,217.2z M32,178.3c-0.1,1-0.8,0.2-1,0.9c-0.5-0.7,0.9-1,0.5-1.5
				C32.1,177.1,31.2,178.4,32,178.3z M29.2,178.9c-0.5-0.1-0.1-0.6-0.4-0.8c0.5-0.5,0.7-0.8,0.8-1.6
				C30.5,177.4,29.5,177.8,29.2,178.9z M31.1,186.3l-0.5,0.9c-0.1-0.2-0.2-0.4-0.5-0.6l-0.2,0.5c-0.1,0.3,0.3,0.5,0.4,0.2
				c0.5,0.6-0.6,0.8-0.8,1c0.4,0.2,0.6,0,1,0.2c-1,0.2-1.2,0.9-1.7,2c-0.4-0.4,0.5-1.1-0.3-1.4c0-0.2,0.8-0.4,0.8-0.4
				c0.1-0.2-0.3-0.5-0.3-0.5c0.3-0.5,0.7-0.9,1.1-2.1C30.4,186.5,30.6,185.8,31.1,186.3z M148.2,229.2c0.1,1.5-0.4,3.2-0.7,2.8
				C147.5,230.8,147.8,230,148.2,229.2z M30,183.7c-0.5,0.9-1.8,1.2-0.9,2.2c-0.2,1-0.9,0.4-1.2,1.1c-0.7,0.8,0.1,1.6-0.8,1.9
				c-0.3-0.4,0-1.2,0.4-2.1C28.1,185.6,28.9,183.4,30,183.7z M30.1,183.1c-1.6-1,0.9-2,0.7-3.4c0.8,0.7,0.2,0.3,0.9-0.1
				C32.3,180.9,29.9,181.5,30.1,183.1z M27.2,183.9c-0.2,0.4,0,0.6-0.3,1c-1-0.1,0.4-1-0.1-1.2c0.8-1,1.6-1.8,2.2-3.2
				C29.8,180.5,27.6,183.3,27.2,183.9z M18.9,228.6c-0.2-1.3-1-2.5-0.6-3.9c0.1-0.2,0.7-0.8,0.8-1.2c0.2-0.4,0.4-1.8,1.4-2.3
				c0.3-0.5,0.2-1,0.4-1.6c0.7-0.7,1.3-1.4,1.9-2.1c0.5-0.7,1-1.3,1.4-2c0.9-1.2,1.7-2.3,2.7-3.2c0.1,0.3,0,0.6-0.1,1
				c0.7,0.3,0.7-0.4,1-1c0.7,0.3,2-0.6,2.1-1.3c-1.1,0.2-2.1,0.5-2.7,1.2c0.2-1.3,1.4-1.6,1.8-2.9c0.4,0.9,1.2-0.2,0.4,1
				c0.5-0.1,1.3-0.8,1.2-1.2c-0.6-0.4-1.2,0.5-1.9-0.3l0.8-1.1c-0.8,1.7,1.5,0.6,1.4-0.4c-0.3-0.2-0.4,0.5-0.7,0.6
				c-0.7,0.3,0.8-1.3,0.9-2.1c0.3,0,0.6-0.4,0.9-0.1c0-1,1.6-1.6,2.3-2.2c-0.5,1.4-1.4,2.9-0.3,3.9c-0.2,0.2-0.5-0.1-0.7,0.2
				c-0.4,0.8,0.6,0.1,0.8,0.5c-0.8,0.8-0.5,1.3-1.1,2.1c-0.8-0.2,0-0.8,0.3-1.2c-0.8-0.9-1.6,1.4-1.3,1.9c-0.4,0.8-1,0.1-1.4,1.1
				c0,0.4,0,0.8,0.1,1.1c0.4,0.3,0.6-0.7,0.5-0.7c0.3-0.3,0.6-0.1,0.9-0.4c0.3-0.4,0.5-1.3,1.4-1.9c-0.6,1.1-1.3,2.2-2,3.4
				c-0.7,1.1-1.4,2.3-2.1,3.4c-0.6-0.9-1.1-1.3-1.9-1.5c-0.7,0.6-0.2,0.9-0.9,1.5c-0.3,0.8,0.8-0.3,1.1,0.5l-0.9,1.1
				c0.9,0.6,1.3-0.2,1.8-1.1c0.3,1.1-1.4,2.7-2.1,4.1c0-0.2-0.1-0.5-0.4-0.7c-0.5,0.5-0.3,0.9-0.6,1.4c0.2,0,0.5,0.1,0.8-0.1
				c-0.3,1.4-1.8,3.1-2.9,4.7c0-0.5-0.2-0.6-0.7-0.3c-0.6,0.4-0.2,1.5,0.3,1.1c0.4,0.4-0.8,1-1.1,1.5C21,229.2,20,228.4,18.9,228.6z
				 M30.3,211.1c0.6,0.5,2.1-1.1,1.6-1.7C31.1,209.8,31.2,210.3,30.3,211.1z M27.4,215.3c1-0.3,1.3-0.6,2.1,0.5
				c1.1-1-0.9-1.2-0.6-1.6c0.7,0,2.2-1.8,1.2-2.4c-0.8,0.6-0.1,0.8-0.3,1.2C28.8,213.9,27.3,214,27.4,215.3z M24.6,221
				c1.1-0.6,0.9-1.1,1.1-1.7c0.2-0.4,1.4-1.3,0.5-1.4c-0.4-0.3-0.8,1-1.3,0.8C25.7,219.7,24.6,220,24.6,221z M23.9,219.6
				c-0.4-0.5-0.9,0.1-1.3,0.4C23,220.8,23.4,220.2,23.9,219.6z M24,222.4c0.5-0.5,0.3-0.9,0.2-1.4c-0.3,0.2-0.6,0.2-1,0.7L24,222.4z
				 M23.9,223.6c0-0.3-0.7-1.7-1.3-0.7C22.4,223.2,23.6,224.5,23.9,223.6z M21.8,227.3c-0.2,0.2,0.1,0.4,0.4-0.1
				c-0.5-0.6-1.1-0.5-1.7,0C20.9,228,21.4,226.8,21.8,227.3z M60.6,105.3c0.4-0.3,0.3-1.4,1-1.1c0,0.8-0.6,0.8-0.7,1.6
				C60.7,105.6,60.9,105.4,60.6,105.3z M61.7,105.1c0.6-0.3,0.8,1.1,0.2,1.1C61.4,105.9,62.4,105.6,61.7,105.1z M60.2,112.6
				c-0.5-0.2-1.1-2.6,0.3-3.1c-0.1-0.5-0.1-1-0.1-1.6c0.2,0,0.2,0.2,0.2,0.3c0.2,0.1,0.2,0,0.3-0.2c0.8,1-1.9,3-0.2,3.4
				C60.7,112.2,60.2,112,60.2,112.6z M61.6,103.6c0.4-0.7-0.4-1.2,0-1.9c0.9,0.6,0.2,1.4,0.7,2c-0.2,0.1-1.1,0.6-1.5-0.2
				c-0.7-0.3,0.5,1-0.2,0.7c-0.9-0.4-0.4-1.1-0.1-1.5C61.3,102.9,61.2,103.3,61.6,103.6z M58.8,108.5c0.3-0.8,0.5-1.3,0.6-1.9
				c0-0.1,0.1-0.3,0.1-0.4c0-0.1,0.1-0.2,0.1-0.3c0.1-0.2,0.2-0.5,0.3-0.8c0.5,0.3,0.8,0.6,0.9,0.9c0.1,0.2,0.1,0.4,0.1,0.6
				c0,0.3-0.1,0.6-0.2,0.9c-1,0.2,0.2-1.1-0.4-1.1C59.4,106.8,60.1,108.4,58.8,108.5z M43.2,161.9c0.4,0.1,0.4,0.6,0.7,0.3
				c0.5,0.6-0.6,1-1,0.7L43.2,161.9z M61.5,100.1c0,0.6-0.6,0.6-0.5,1.8c-0.5-0.4,0.1-0.9-0.7-1.3C60.7,100.3,60.8,99.5,61.5,100.1z
				 M65.4,96.3c0.4,0.8,0.2,2.2-0.5,1.8c-0.7-0.8,0.1-0.3,0.1-0.4C65.1,97.4,65.1,96.4,65.4,96.3z M58.3,111.3
				c-0.4,1.6,1.4,0.6,0.9,2.1c-0.6-0.3-0.6-1-1.4-1.2c0.3-1,0-2.3,1.1-2.4C58.5,110.6,59.1,112.2,58.3,111.3z M65,99.3
				c0.4,0.8-0.3,1.3-0.3,2C64.5,100.3,64.6,99.5,65,99.3z M62.8,99.1c-0.5,0.1,0,0.6-0.5,0.8c-0.4-0.4,0-0.8-0.4-1.2
				C62.1,98.6,62.4,98.8,62.8,99.1z M63.5,94.1c0.5,0.7,0.7,0.7,0.7,0.2c0.7,1.6-0.5,1.1-0.2,2.4c-0.3-0.2-0.7-0.7-0.9-0.5
				c0,0.6,0.4,0.3,0.8,0.9c-0.2,0-0.3,0.1-0.4,0.4c-0.4-0.2-0.5-1.2-0.8-0.9c-0.3-0.4-0.4-1.7,0.1-1.3c0.1-0.3-0.4-0.9-0.2-1.2
				c0.4,0.5,0.3,0.7,0.2,1c0.3,0.4,0.4,0.3,0.6,0.6c-0.1-1-0.9-2.3-0.6-3.3c0.7,1.7,0.4,0.3,0.4-0.4c0.3,0.5,0.3,0.8,0.7,1.3
				C63.9,94.1,63.5,93.4,63.5,94.1z M64.8,102.9c-0.5,0-0.3,0.8-0.4,1.3c0,0.2-0.3,0.2-0.4,0.4c-0.1,0.2,0.2,0.4,0.1,0.6
				c-0.2,0.5-0.4,1.1-0.6,1.7c-0.1,0.6-0.3,1.1-0.4,1.7c-0.1,0.6-0.3,1.3-0.4,1.9c-1.3-0.4,0-1.8,0.1-2.4c0.1-0.7-0.3-1.4,0.2-1.6
				c0-0.2-0.4-0.3-0.5-0.1c-0.5-0.3,0.4-0.6,0.8-0.4c0.1-1.3,0.7-2,0.4-3.2C64,102.9,64.2,102.6,64.8,102.9z M42.8,164.3
				c0.8-0.4,0.2,1.8-0.3,2.1C41.9,166,43.4,164.6,42.8,164.3z M36.1,164.9c0.3-0.4,1-0.7,1-1.2c0.9,0.2-0.9,1.5-0.8,1.3
				c-0.1,0.2-0.3,1.2-0.5,2c-0.3,0.7-0.8,1.2-0.8,1.9c-0.4-0.1-0.7,0.2-0.8,0.8c-0.3-1,0.9-1.6,1.4-2.7
				C35.8,166.2,35.7,165.5,36.1,164.9z M41.2,164.5c-0.8-0.1,0.1-0.9-0.9-0.9c0.2-0.4,0.4-0.6,0.7-0.5
				C41,163.5,41.8,163.7,41.2,164.5z M41,163c0.3-0.7-1.6-0.3-0.8-1.2c0.7-0.1,0.7,1.1,1.1,0.4C41.8,162.5,41.6,163.1,41,163z
				 M37.1,162.5c-0.2,0.7-1.1,0.6-0.8,1.3C35.7,164.5,36,161.5,37.1,162.5z M60.7,125.6c-0.2,1.1-0.6,0.9-0.5,1.8
				c-1.3-0.3,0.7-1.4-0.8-1.6C59.4,124.9,60.2,125.6,60.7,125.6z M52.8,153.6c0.3,1.6-1.2,3.1-1.6,4.5c-0.3,1.1,0.2,2.1-0.4,2.7
				c-0.7-0.2,0-1.1,0.1-1.7c0.1-0.5-0.1-1,0-1.4c0.1-0.4,0.4-0.3,0.4-0.4c0.1-0.3-0.2-1.2,0.7-1.2C52.1,154.7,52,154.7,52.8,153.6z
				 M36.9,166.7c-0.2-0.3,0-0.9,0-1.4C37.8,165.4,37.4,166.4,36.9,166.7z M39,170.4c-0.5,0.2-0.9,0.7-1.3,1.2
				c-1.4-1.5,0.5-3.3,1-4.9c0.1-0.3-0.3-0.4-0.6-0.5c1.1-0.3,0.5-1.3,0.7-2.3c0.2-0.8,0.9-0.4,1.2-0.9c0.3,1-1,1.6-0.8,2.7
				c0.2,0.6,0.9,0.9,0.6,1.7c-0.4-0.1-0.3-0.4-0.6-0.5C39,168.3,37.2,169.6,39,170.4z M45.7,168c0.9,0.6,0.5,1.6-0.2,2.5
				c0.3,0.5,0,2.5-1.1,1.9C45,171,45.2,168.8,45.7,168z M207.1,98.6c-0.2,1.3-1.5,2.9-1.9,4.2C205.3,101.4,206.2,99.7,207.1,98.6z
				 M59.8,53.4c0.3,1.6-0.2,1.8-0.5,2.4C59,54.2,59.6,53.9,59.8,53.4z M59.7,57.8l0.9-2.8C60.9,56,60,59.4,59.7,57.8z M58.6,53.2
				c-0.3-1.6,0.2-1.5,0.5-2.1C59.3,52.3,58.9,53.4,58.6,53.2z M67.3,45.4c0-1,0.9,1.2,1.3,1.5C68.6,48.5,67.9,46.1,67.3,45.4z
				 M57.4,50.2c-0.7,3.1-1.4,3.5-1.9,5.7c-0.3-2-0.6,1.5-0.9-0.4c0.6-0.7,0.8-2.2,1.2-2.9c0-0.1,0.2,0.8,0.2,0.8
				c0.2,0,0.4-1.7,0.6-1.8c0.1-0.9-0.2-0.5-0.3-2c0.7,0.5,0.7-1.9,1.4-2.4c0.1-0.5,0-0.6-0.1-0.4c-0.2-1.7,0.5-0.5,0.6-1
				c0.3,0.8-0.5,3.2,0.1,2.8c0,1.7-0.8,1.1-0.8-0.6C57.4,48.6,57,49.3,57.4,50.2z M57.7,65.1c-0.4-1.6,0.6-2.8,0.9-4.2
				C58.9,63.2,57.8,62.9,57.7,65.1z M70,43.5c0,1.1,0.4,1.9,0.7,2.7c0.2,0,0.3-0.4,0.4-0.7c0.5,0.9,0.8,1.9,1.5,2.6
				c-0.5,0.4-0.1,1.2-0.6,1.3c-0.8-1.8,0-0.5,0-1.8c-0.7-0.9-0.6,1-1.8-1.4c-0.1-2.4-0.5-1.9-1.3-3.2c-0.1-2,0.6-1.2,1.5,0.2
				C70.5,44.1,70.3,43.8,70,43.5z M56.1,58.5c0.1,1.1-0.8,1.4-1,3.1C54.6,60.4,55.7,59.1,56.1,58.5z M55.6,49.4
				c-0.3-0.8,0.4-1.5,0.5-2.3C56.5,48.9,56,49.5,55.6,49.4z M74,48.6c0.4,0,0.5-0.6,1.2,0.6C75.2,50.5,74.5,49.2,74,48.6z
				 M79.6,57.6c-0.1-0.4-0.3-0.9-0.6-1.3c0.4,0.1,0.7-0.4,1.3,0.8C80.2,57.7,79.8,56.9,79.6,57.6z M57.3,66.3
				c-0.7,2-1.2,3.4-1.6,4.7c-0.4,1.4-0.9,2.6-1.7,4.7c-0.5,0.6,0.2-1.5,0.4-2.2c0.7-2.4,2-6,2.8-8.6C57.5,65.5,57.4,65.9,57.3,66.3z
				 M87.9,69.4c0.9,1.3,0.5,1.9,0,2.4C87.4,71,87.9,70.2,87.9,69.4z M98.5,82.3c0.6,0.9,0.8,1.6,0.3,2C98.2,83.5,98,82.7,98.5,82.3z
				 M90.3,68.3c0.7,0.7,1.5,1.9,2.1,3.2c0.7,1.3,1.3,2.8,1.8,4.2c0.6,1.3,0.9,0.1,1.5,1.8c-0.2,0.1-0.4-0.2-0.5,0.1
				c0.9,2.2,1.7,2.4,2.6,3.6c-1.1,0.5-0.3,1.8,0,2.9c-1.3,0-1.8-3.2-1.8-4.3c-0.7,0.5-2.2-0.2-2.5-1.5c0.3-0.8,0.9,1.1,1.2,0.7
				c0.3-1-0.7-1.1-0.9-1.2c-0.1-0.6-1.1-1.4-1.2-2.1c0-0.1,0.3-0.4,0.3-0.5c-0.2-0.5-0.7-0.4-1.1-0.9c-0.3-0.5-0.2-0.7-0.3-1
				c-0.3-0.5-0.8-0.3-1-1.8c0-0.3-0.2-0.7-0.3-1C90.3,69.9,91.5,70,90.3,68.3z M90.8,70.5c1,1.4,0.9,4.2,1.9,2.4
				C92.1,71.8,91.3,69.7,90.8,70.5z M73.3,53.8c-0.1,1.3-0.9-0.7-1.3-1.5C72,51.3,72.9,53.4,73.3,53.8z M73.6,52.2
				c-0.4,0.4-1.6-2.3-2.4-3.1C71.6,48.7,72.9,51.4,73.6,52.2z M96.6,93.8c1,0.1,0.7,1.2,1.4,2.4C98.1,97.2,97,94.4,96.6,93.8z
				 M91.3,83.5c0.8,0.7,1.6,2.4,2.4,4c0.8,1.3,3.2,6.4,1.7,3.8c-0.3-0.5-0.6-1.1-0.9-1.8c-0.3-0.7-0.7-1.4-1.1-2.1
				C92.6,86.1,91.9,84.6,91.3,83.5z M120,167.8c-0.7,1.1-0.8-1.8-1.6-2.4c0.7,0.3,1.5,1,1.1,1.8C119.6,167.6,119.7,167.9,120,167.8z
				 M120.9,171.7c-0.2-0.9-0.5-1.9-1-2.9C120.7,169.1,121.8,171.1,120.9,171.7z M119.9,174.2c0.3,0.7-0.7,0.4-0.9,0.4
				c-0.2-0.4-0.2-0.6-0.1-0.8c0-0.2,0.1-0.4,0-0.7c0.3,0,0.3,0.3,0.4,0.6C119.3,174,119.4,174.4,119.9,174.2z M53.1,78.1
				c0,1.4-0.9,4.3-1.5,5C51.6,80.9,52.8,79.2,53.1,78.1z M97.5,85c1.6-1.5,3.3,1.8,3.8,4.6c0.3,0.5,0.4-0.2,0.2-0.7
				c1.2,0.7,0.9,2.7,1.3,3.7c0.2,0.5,0.3,0,0.2-0.1c0.3,0.4,0.8,1.2,1.2,2c0.1,0.1,0.1,0.2,0.1,0.3l0.1,0.2c0,0.1,0.1,0.3,0.1,0.4
				c0,0.3,0.1,0.5,0,0.7c0.5,0.2,0.7,1.3,1.4,0.8c-0.2,1.2,0.7,2.2,1.3,3.5c0,0.7-0.9,1.1-0.4,1.9c0.7,0.4-0.1-1.5,1.1-1.1
				c0.3,0.4,0.3,0.8-0.1,0.9c0.9,1.6,1.5,3.9,2.5,4.9c0.3,0.5,0.2,0.8-0.3,1c1,0,1.6,1.3,1.7,2.7c0.7,0,1,1.1,1.5,1.6
				c-0.4,0.3-0.6-0.2-0.8-0.5c-0.4,0.9,1,1.4,0.7,2.3c0.2,0.3,0.3,0,0.2-0.1c0.9-0.1,0,0.5,0.1,0.8c0,0,0.5,1,0.5,1.2
				c0.1,0.4,0.4,0.8,0.5,1.2c0.1,0.3-0.1,0.9-0.1,0.9c0.1,0.3,0.8,0.4,1.1,0.7c0.3,0.3-0.1,0.5,0.1,0.8c0.1,0.2,0.3,0.1,0.4,0.4
				c0.3,1,0.1,1.8,0.7,2.2c0.1,0.1,0.1-0.5,0-0.7c0.8,0.9,0.8,2.3,1.1,3.3c0.1,0.4,0.6,0.7,0.7,1.1c0.1,0.1-0.1,0.6,0.2,1
				c0.2,0.3,0.4-0.1,0.5,0.1c0.4,0.3,0.3,1.3,0.7,1.7c-0.4,0.1-0.7-0.2-0.8-0.8c0.1,1.1-1,0-1.2,0.8c0.1,0.2,0.3,0.1,0.4,0.4
				c0.4,0.7,0.4-0.4,0.9-0.4c0.4,0,0.1,0.6,0.4,1c0.1,0.1,0.7,0.5,0.7,0.5c0.1,0.1-0.2,1.4,0.6,0.9c0.3,0.5-0.3,0.5-0.1,0.9
				c0.1,0.4,0.4,0.4,0.6,0.3c0,1.2,0.1,2,1.2,2.9c0,0.7-0.2,1.3,0.1,2.2c0.4-0.1,0.3-0.4,0.2-0.7c0.5,0.3,0.3,0.9,0.9,1.6
				c0.2,0.4,0.8-0.2,1.1,0.1c0,0.9,1,0.8,1.3,1.1c0.2,0.2,0.2,0.8,0.5,1.2c1.1,1.5,2.2,4.9,3.2,7.5c0.2,0.5,1.1,1.1,0.5,1.7
				c0.1,0.6,0.6,0.2,0.7,0.5c1,2.8,2.2,4.6,2.4,6.7c-1-0.6-0.5-2-1.4-2.7c-0.9,0-0.1,1,0.2,1.6c0.1,0.3,0.1,0.8,0.1,0.8
				c0.3,0.5,0.9,0.6,0.9,1c0,1.4,0.6,3,1.8,3.4c0.3,1.1,0.8,2,1.2,2.8c0.2,0.4,0.4,0.8,0.5,1.2c0,0.1,0.1,0.2,0.1,0.3l0,0.2
				c0,0,0,0.1,0,0.1c0,0.1-0.1,0.3-0.1,0.4c1,0.1,0.8,1.3,0.9,2.1c0.8-0.5,0.5,0.7,0.8,1.3c0.2,0.5,0.7,0.4,0.9,0.8
				c0.2,0.5,0.5,1.1,0.7,1.5c0.2,0.4,0.2,1.8,0.7,0.9c-0.2,1.3,0.2,0.4,0.3,0.7c0.1,0.1,0,0.5,0,0.6c0.2,0.6,0.6,0.4,0.9,0.8
				c0.1,0.2,0.2,1.1,0.4,1.3c0.1,0.1,0.2-0.5,0.3-0.4c0.1,0,0.2,0.9,0.3,1c0.2,0.2,0.3-0.8,0.4,0.3c0,0.1,0-0.6,0-1
				c0.1,0.5,0.2,1.1,0.3,1.1c0.1,0.7,0.2,1.6,0.3,2.3c0,0.2,0.1,0.3,0.1,0.5c0,0.1,0,0.1,0,0.2c0,0,0,0.1,0,0.1c0,0.1,0.1,0,0.1-0.2
				c0.2,1.4,0,3,0.1,5.8c0.1,1,0.2,0.2,0.3-0.3c0-0.2,0.1-0.4,0.1-0.5c0-0.6-0.1-0.8-0.1-2.2c0.1-0.8,0.2,1.8,0.4,1.6
				c0.2,0.1,0-1.6,0.2-1.7c0.1,0.9,0.2,0.9,0.2,1.9c0.2,0,0.1-1.2,0.3-1.3c0.1,0.7,0,0.9,0.1,1.5c0.2-0.8,0.3-1.7,0.6-0.6
				c0.1-0.2-0.1-0.6-0.1-0.5c0.1-0.9,0.4-1.6,0.7-1.1c0-0.6-0.2-1.3,0.1-0.8c0.1-0.6,0.1-1.4,0-2.3c0.2,0.2,0.4,1.2,0.5,1.2
				c0-0.3,0-0.6,0.1-0.8c-0.2-0.9-0.4-0.9-0.6-2.2c0.1-0.3,0.1,0.1,0.2,0.6c0.3,0.1,0-0.9,0.2-0.9c0.2,0,1.2,2.3,0.6-0.1
				c-0.2-0.4-0.3-0.1-0.2,0.3c-0.2-0.2-0.5-1.4-0.7-1.9c0-0.5,0.1-0.9,0.3-1.1c0.2,0.8-0.3,0.5,0.1,1.5c0.4,0.4,0.6-1.2,0.3-2.3
				c0.3,0,0.3-1.2,1,0.3c0.3-0.1-0.2-1,0-1.2c0.2,0,0.1,0.4,0,0.5c0.5,0.9,0.9,0.4,1.3,1.8c0.3,0.2,0.6-0.4,0.4-0.9
				c-0.3-0.3-0.4,0-0.6,0.1c-0.1-0.6-0.9-1.3-0.7-1.9c0.3-0.5,0.2,0.5,0.6,1c0.2-0.5-0.3-1.3,0.3-0.7c0.1-0.5-0.4-0.4-0.6-1
				c0.4,0.2,0.5-0.6,0.8-1c0.4,0.1,0.6,1.1,1,0.8c0.1-0.2,0-0.5-0.1-0.8c-0.3-0.3-0.2,0.3-0.5,0c-0.6-0.6-0.1-0.7,0-1
				c-0.7-0.6-0.4,0.3-0.6,0.6c-0.8-1.3,0.2-1,0.3-1.8c0.2,0.3,0.2,0.5,0.4,0.8c0-1.1,0.9-0.3,1.5-0.3c0-0.1-0.1-0.3-0.1-0.4
				c-0.7-0.3-1.2-0.3-2-0.9c0.3-0.1,0.6-0.1,1.2,0.4c0.3-0.3,0-0.7-0.3-1.1c0.2-0.1,0.5,0.1,0.9,0.4c0.1-0.5-0.4-0.5,0.2-0.9
				c0.2-0.1,0.4-0.4,0.7-0.3c0.1-0.6-0.6-0.3-0.9-0.9l-0.2,0.4c-0.3-0.4,0.3-0.9,1-0.4c0.1-0.3,0.2-0.5,0.4-0.6
				c0.2-0.3,0.5-0.6,0.7-1.1c-0.2,0.1-0.4,0.3-0.6,0.5c-0.2,0.2-0.4,0.5-0.5,0.5c-0.3,0.2-0.6,0.2-0.9-0.1c0.1-0.2,0.3-0.2,0.5-0.1
				c0.2,0,0.4,0,0.6-0.3c0-0.2-0.1-0.3,0-0.6c-0.4-0.2-0.6,0.1-1-0.2c-0.3,0.4-0.2,0.8-0.2,0.9c-0.2,0-0.3-0.1-0.3-0.2
				c0-0.1,0-0.1,0-0.2c0-0.1,0.1-0.2,0.1-0.3c0.2-0.5,0.7-1,1-1.1c0.4,0.2,0.3,0.5,0.8,0.6c0.1-1.1,0.9-2.6,1.8-2.6
				c-0.2-0.6-0.8-0.2-1.3-0.1c0-1.6,2.4-1.9,2.3-3.8c0.2-0.8,0.9,0.1,1-1c0.6-0.7-0.3-0.8-0.2-1.3c1-0.9,0.9-1.8,1.9-2.3
				c0-0.3-0.4-0.5-0.1-0.9c-0.1-0.4-0.6-0.7-0.5-1.1c-0.4,0.1-0.5,0-0.3-0.4c0.7,0.3,1,1.3,1.6,0.5c0.2-0.6-0.5,0.1-0.9-0.4
				c0.6-0.8,0.3-1.7,0.6-2.3c0.4-0.9,1.5-1.1,1.9-2.2c0.4-0.5-1-0.4-0.3-1c0.3-0.8,0.3,0,0.5,0c0.3,0,0.5-0.7,1-0.4
				c0.2-1.1-0.6-0.7-0.9-1.3c0.6-0.6,1.2-1.7,1.3-2.6c0.7-0.3,0.7,0.4,1,0.8c0.7-0.2,0.7-1.4,0.9-2.4c0.6,0.6,1,0.3,0.9,1.4
				c0.3,0.1,0.5-0.5,0.7-0.8c0.2-0.5-0.9-0.6-1.2-0.9c0.4-0.7-0.5-0.9,0.1-1.7c0.1-0.3-0.3-0.4-0.5-0.6c1.1-1.4,1.5-2.9,2.4-4.1
				c0.1-0.2-0.2-0.3-0.3-0.5c0.6-0.9,0.7-1.8,1.2-2.3c0,0,0.4,0.2,0.4,0.2c0.3-0.1,0.3-1,0.6-1.2c0.1-0.3-0.3-0.4-0.2-0.7
				c-0.5-0.6-0.5,0.7-1.1,0c-0.1-1.4,1.5,0.1,1.4-1.6c0.4,0.1,0.3,0.4,0.5,0.6c0.6-0.6,0-1.6,0.8-1.6c0.1-0.3-0.3-0.4-0.5-0.6
				c1.1-1.2,1.2-2.2,1.6-3.6c0.3,0.2-0.3,0.7,0.1,0.9c0.8,0.1,0.5-3-0.1-1.3c-0.4-0.4,0.5-1.2,0.6-1.7c0.4,0.3,0.6,0.1,1,0.2
				c0.1-0.3-0.1-0.2-0.2-0.1c-0.5-0.9,1.9-1.9,0.9-2.8c0.3-0.8,0.9-0.2,1.2-1.2c-0.4-0.4-0.6,0.1-0.8,0.5c-0.3-0.5,0.7-1.3,1.1-1.5
				c0.1-0.4-0.9-0.1-0.3-1c0.2-0.5,0.5-0.3,0.9-0.1c0.6-0.7,0.3-1.7,0.6-2.6c0.1-0.1,0.3-0.2,0.5-0.3c0.2-0.3,0-0.5,0-0.6
				c0.3-0.6,1-1.5,1.4-2.5c0.2-0.4,0.6-1.2,0.9-1.6c0.3-0.6,0.1-1.4,0.9-1.6c0.2,0,0.7-0.4,0.7-0.8c0,0-0.3-0.5-0.3-0.5
				c0-0.1,1.9-1.1,0.8-1.9c0.4-0.9,0.6-1.5,1.3-2.9c0.1-0.3,0.4-1.1,0.3-1c0.2-0.3,0.6-0.1,0.8-0.4c0.4-0.7-0.3-1,0.6-1.1
				c-0.1-0.3-0.1-0.7-0.2-1c1.8-3.4,3.5-6.8,4.6-10c0.3-0.1,0.6-0.1,0.9-0.1c0.2-2.8,1.6-4.9,2.6-7.3c0.4-0.6-0.7-0.7-0.1-1.3
				c0.6,0.5,1,0.2,1.4-0.1c-0.5-0.5-0.8,0.4-1.3-0.2c0.3-0.6,0.6-1.1,1.1-0.9c0-0.4-0.2-0.7-0.6-0.9c0.8-1.7,1.2-2.1,2.3-3.8
				c0.6,1.2,0.7,1.2,1.9,2c0.4-0.4,0-0.6-0.3-0.8c0.5-0.6,1.2-0.1,1.8-0.1c0.3-1.3,1.6-1.8,1.2-2.9c0.2-0.6,0.6-0.1,0.8-0.4
				c0.1-0.3-0.3-0.4-0.1-0.7c0.3-0.9,0.8-0.7,1.2-1.4c0.5,0.1,1,0.1,1.3-0.7c-0.4-0.9-1.3,1.7-0.9,0.1c0.1-0.4,0.5-0.8,0.5-0.9
				c0.2-0.6,0-0.9,0.1-1.1c0.2-0.4,0.5-0.3,0.7-0.8c1-1.8,2-4.1,2.8-5c0.1-0.3-0.3-0.4-0.5-0.6c1-0.8,1.9-2.9,1.9-4.4
				c0.2-0.5,0.7-0.6,0.9-1c0.3-0.4-0.1-0.8,0-0.9c0.2-0.3,0.6-0.1,0.7-0.2c0.1-0.1,0.5-1.1,0.5-1.2c0.2-0.4,0.2-0.9,0.6-1.5
				c-0.3-0.1-0.5,0.4-0.8,0.8c-0.7,0.3,0.8-1.5,1.1-2.1c0.2,0.8,1-0.2,0.9,0.9c0.7,0.2-0.3-0.8,0.5-1.2c-0.3-0.6-1.1,0.1-0.8-0.5
				c0.5-0.9,0.3,0.3,0.9,0c0.4-0.4-0.3-0.6-0.3-0.8c0-0.3,1-1,0.2-1.1c0.7-1.3,1.5-2,2.2-2.9c0.6,0.5,1.1,0,1.2,0.8
				c0.9-0.6,2.3-2.8,2.6-3.9c0.1-0.2-0.1-0.3-0.3-0.5c0.9-2,3-3.5,3-4.9c0.8-0.8,2.1-2,1.2-2.7c0.6-0.5,0.6-1.2,1-1.9
				c0.3-0.4,0.9-0.8,1.1-1.2c0.1-0.3,0-0.7,0-0.9c0.3-1,1.2-2,1.7-3c0.4-0.8,1.5-2.1,2-3.4c0.4-0.8,0.3-1.6,0.7-2.3
				c0.5-0.8,1.2-1.5,1.4-2.5c0.5,0.6,0.9,0.3,1.3,0.6c-0.7,0.7,0.4,1,0,1.6c0.7,0.2,0.2-0.9,0.9-1.3c0.3,1,1.3,1.9,2.3,1.3
				c0.1-0.1,0-0.7,0.1-0.9c0.2-0.5,1.1-1.4,1.6-2.4c0.4-0.8,0.2-1.6,1.1-2.1c-0.4-1,1.4-3,2.1-4.6c0.2-0.5,0-0.9,0.2-1.5
				c0.5-1.5,1.9-2.4,2.8-3.5c0.7,0.7,1.2,0,1.8,0.3c1.1-1,2.5-0.2,3.6-0.9c0.4,0.9,0.8,0.5,1.4,0.1c0.4,1.5,1.7,0.4,2.6,0.9
				c-0.3,0.3-0.1,0.5-0.3,0.8c0.3,0.1,0.5-0.4,0.8-0.7c0.1,0.9,0.5,0.5,0.5,1.3c0.3,0.3,0.5,0.1,0.7-0.1c-0.1,0.4,0.4,0.5,0.5,1
				c0,0.1-0.3,0.3-0.3,0.4c0.2,0.4,1,0.5,0.8,0.9c-0.1,0.2-0.4,0-0.5,0.3c-0.1,0.5,0,0.9,0.4,1.5c-0.7,0.6-0.3,1-0.9,1.6
				c-0.1,0.3,0.2,0.4,0.4,0.6c-1.5,0.5-2.7,2.6-4.3,2.7l-1.2,1.7c1.1,0.9,2.1,0.5,3.1,1c-0.8,1.5,1.3,0.7,1.5,1.7l-0.6,0.8
				c0.5,0.3,0.8,0,1.3,0.6c-1,1-1.1,1.2-1.8,2.2c-0.5-0.2-0.9-0.1-1.4,0.3c-0.5,0.8,0.5,0.4,0.3,0.8l-0.6,0.8l-0.8-0.6
				c-0.4,1-1.6,1.1-1,1.8c0.3,0.2,0.5-1.5,1.3-0.6l-4.5,6.5c-0.1,0.3,0.1,0.6,0,0.9c0.5,0.3,0.8,0,1.3,0.6c-0.5,1.2,0.1,1.4-1.1,2.4
				c0.5,0.6,0.7-0.2,1-0.6c0.6-0.6,0,0.6-0.2,0.8c-1.2,1.3-2.1,4.3-3.6,4.1c0.1,0.6,0.4,1.2-0.5,2.1c-0.3-0.2,0.4-0.7,0-0.9
				c-0.2-0.1-0.3,0.1-0.5-0.1c-0.2,0.6-0.4,1.2,0.1,1.6c-0.8,1.6-2.3,2.3-2.6,3.8c0.1-1.5-1.1,0.6-0.7,1.1c-0.9,1.3-2,2.8-2.7,4.1
				c-1.7,3.3-5.2,6.8-5.7,9.7c-0.4,0.3-0.4-0.2-0.6-0.4c-0.1,0.3-0.3,0.4-0.5,0.3c-0.4,0.6,0.1,0.8-0.3,1.3c-0.2,0.4-1,0.6-1.2,1
				c-0.3,0.5,0.1,0.9-0.3,1.3c-0.3,0.5-0.6,0.6-1,0.3c-0.1,0.6,0.5,1.1-0.3,1.9c-0.2-0.2,0.1-0.5-0.1-0.7c-0.5,0-0.6,0.9-1.2,1.4
				c-0.1,0.1-0.7,0.1-0.7,0.2c-1.2,1.5-1.7,3.6-2.5,4.5c0,0.3,0.2,0.6,0.3,0.8c-1.3,0.4-1.6,2.3-2.1,3.5l-0.6-0.4
				c-0.1,0.6-0.6,1.3-0.2,1.7c-0.6,0.5-0.4-0.6-0.7-0.7c-0.5,0.7-0.2,1.3-0.3,1.9c-0.8,0.8-1.5,2.2-1.5,3.3
				c-0.3,0.3-0.6,0.4-0.9,0.6c-1,3.7-2.7,7.5-5.3,10.8c-0.1,0.6-0.3,1.3-0.3,1.9c-0.7,0.8-1.4,1.3-2,2.4l-0.8-0.5
				c-0.1,1,0,2.9-1.2,3.1c-0.4-0.6,0.7-1.2,0.9-1.6c0.1-0.7-0.6-1-0.1-1.8c-0.4,0-0.7,0.3-0.9,0.6c0.1-0.9-1.1-1.1-1.3-1.6
				c-0.4-1.3,0.8-2.2,1-3.6c0.3-0.4,0.6-0.9,1.1-0.5c0.1-0.4,0-0.7,0.1-1.1c-0.4-0.2-0.7,0.1-0.9,0.6c-0.2-0.8,1.1-2.2,1.6-2.7
				c0.5,0.6,0.5,0.4,1.2,0.4c0.3-0.6-0.3-1.2,0.6-1.4c-0.3-0.1-0.3-0.3-0.3-0.5c-0.7-0.3-0.8,2-1.5,1.2c0.6-1,1.1-2,1.8-2.5
				c0.3-0.9-0.7-0.4-0.8-1.1c-0.4,0.7-0.3,1.5-1,1.8c-0.4-0.3-0.6-0.6-0.6-0.9c-0.4-0.1-0.7,0-1,0.3c-0.1,1,0.8-0.1,1.2,0.4
				c-0.4,0.4,0,0.6,0.4,0.8c-0.3,0.8-0.7,0.7-1,1.2c-0.2-0.2,0.2-0.7,0.3-1c-1.1-0.2-0.6,1.3-0.5,1.8c-0.5,0.8-1.1,0.8-1.7,1.1
				c-0.1,0.5,1,0.7,0.3,1.4c-0.4,0.3-0.9,0.1-1.4,0.1c0,0.4,0.5,0.7,0.4,1.2c-1.1,2.2-2.9,4.8-4.4,7.6c-0.4,0.5,0.5,0.6,0.2,1
				c0.4,0,0.7-0.3,0.9-0.7c0.3,1,1.4,0.5,2.1,0.6l-0.3,0.4l-0.3,0.4c-0.4-0.7-1.1-0.9-1.6,0c0.5,0.5,0.7-0.6,1.3,0.2
				c-1.1,0.5-1.1,1.3-1.1,2.3c0.7-0.2,0.4-0.9,0.8-1.3c0.6-0.8,1.4-1,2-1.5c0.1,0.5,0.6,1.4,1.2,0.7c-0.1,0.9-0.2,1.8-0.1,2.6
				c-0.2,0.7-0.7,0.2-0.9,0.6c-0.5,0.5-0.5,1.2-0.8,1.9c-0.2,0.4-0.4,0.3-0.6,0.5c-0.4,0.8-0.5,1.5-0.9,2.1
				c-0.9,1.3-2.3,4.1-3.1,5.6c-0.2,0.4-1.2,0.8-0.5,1.5c-0.2,0.7-0.7,0.2-0.9,0.7c-0.3,0.3-0.1,0.5,0.2,0.7
				c-0.2,0.8-0.9-0.1-1.1,0.5c-0.6,0.7-0.2,1.5-1,1.8c-0.1,0.3,0.3,0.4,0.5,0.6c-0.8,0.4-1.4,1.4-2,2.7c0,0.3,0.2,0.6,0.4,0.8
				c-1.4,2.5-4.8,8.6-6.6,13c-0.3,0.7-0.2,1.3-0.5,2c-0.6,1.6-1.7,2.8-1.9,4.2c0.8-1.1,1-0.5,0.4,0.8c0.4-0.7-2.5,4.6-3.4,6.6
				c-0.2,0.4-0.4,0.3-0.6,0.6c-0.2,0.4-0.3,1.1-0.6,1.7c-0.3,0.5-0.7,0.8-0.8,1c-0.2,0.5,0.2,1.2-0.6,2.3c-0.2,0.2-0.8,0.5-0.8,0.5
				c-0.1,0.4,0.2,1,0.1,1.5c0,0.1-0.4,0.3-0.6,0.6c-0.3,0.6-0.2,1.4-0.5,2c-0.3,0.6-1.7,3-1.9,3.9c-0.1,0.3,0.5,0.5,0.1,0.9
				c-0.4-0.1-0.3-0.4-0.5-0.5c-0.2,0.4,0,0.6-0.2,1c0.2,0.2,0.4,0.1,0.5,0c0.5,0.4-0.3,0.7-0.7,0.3c0,0.7-0.1,1-0.4,1.5
				c-0.1,0.2-0.2,1.5-0.3,1.8c-0.2,0.4-0.7,0.8-0.9,1.3c-0.3,0.7-0.6,1.5-0.9,2.3c-0.2,0.4-0.3,0.8-0.5,1.2
				c-0.1,0.2-0.2,0.4-0.2,0.5c-0.1,0.2-0.2,0.4-0.3,0.6c-0.4,0.8-0.4,2-0.8,2.9c-0.2,0.5-0.4,0.5-0.7,0.9c-0.6,0.9-0.6,2.1-1,2.8
				c-0.3,0.6-0.9,0.9-1.1,1.3c-0.3,0.5-0.9,1.3-1.1,1.8c-0.1,0.3,0,1.2-0.1,1.3c-0.2,0.6-0.4,0.4-0.6,0.8c-0.3,0.5-0.1,0.9-0.4,1.5
				c-0.3,0.7-0.8,1.1-1,1.7c-0.2,0.5-0.4,1.6-0.7,2.7c-0.3,1.1-0.8,2.4-1.4,2.8c0.2,0.8-0.8,3.6-1.7,5.7c-0.2,0.5-0.7,0.9-0.9,1.4
				c-1.5,3.9-2.9,8.9-4.4,11.5c-0.3,0.6-0.8,0-1,1.7c0.1,0.4,0.3-0.3,0.5-0.6c-0.2,1.5-1.5,5-1.8,2.9c0.1,1.4-0.3,1.4-0.7,3
				c-0.2,0.8-0.4,3.1-1.2,4.1c-0.2-0.9,0.1-1.4,0.3-2c-0.1-0.2-0.6-1,0-1.8c-0.3-1.2-0.2,1.2-0.6,1.3c0.1-0.7,0-1.5-0.1-2.3
				c-0.4,0.5-0.3,1.5-0.6,2.1c-0.1-2.4-0.7-1.5-0.8,0.1c0.3,1.4,0.9,0.2,1.2,2.1c-0.1,1.3-0.5,2.4-0.5,3.8c-0.3-0.1-0.4-1.5-0.7-1.6
				c-0.4,1.1-0.2,3.4,0.3,1.8c-0.4,3.1-1,1.1-1.2-0.3c-0.1,1.2-0.4,2.2-0.5,3.4c-0.1,0.4-0.1,1,0,1.9c-0.2-0.2-0.5-0.4-0.5,0.2
				c-0.1-0.3-0.2-0.5-0.4-0.8c-0.1-0.1-0.1-0.2-0.2-0.3c-0.1-0.2-0.1-0.4-0.2-0.6c-0.3-0.8-0.5-1.5-0.6-2.5c0.5,0.7,0.9,1.4,0.8,2.8
				c0.3,0.2,0.6,0.3,0.8,0.5c0-2-0.8-1-0.8-2.9c0.5-0.4,0.4-0.1,0.8,0.8c-0.2-1.9-0.8-1.8-0.9-3.4c-0.1,0-0.1,0-0.2,0
				c-0.1-0.1-0.1-0.1-0.2-0.1c-0.1,0-0.2,0-0.3-0.1c-0.2,0-0.4-0.2-0.6-1.2c0-2.2,1.2-1.4,0.9-3.2c0.2-0.8,0.5-0.4,0.8-0.5
				c0.1-0.3,0.2-0.6,0.3-1.2c-0.1,1.6,0.1,0.7,0.1,2.2c0.6-1.2,0-4.3,0.7-5.3c0.3-0.8,0.2,0,0.2,0.8c0.3-0.4,0.1-1.4,0.3-1.9
				c0.5-1.9,0.6,0.3,1.1-1.3c0.3-1.7-0.4-0.6-0.4-2.2c0.2,0.7,0.6-1.4,0.7-0.4c0.3-0.8-0.3-1-0.4-0.9c0.2-1.5,0.9-1.5,1.1-3.7
				c-0.5-1.1-0.3,1.8-0.6,2.1c-0.2-1-0.7-0.1-0.5-1.9c-0.6,0.6-0.3,2.4-0.8,3.1c-0.4,0.8-0.2-1-0.6,0.8c-0.2,0.9-0.3,1.7-0.5,2.4
				c-0.3-0.2-0.6-0.1-0.9,0.2c-0.1,0.3-0.1,0.4-0.1,0.5c0,0,0,0.1,0,0.1c0.1,0.1,0.4-0.6,0.3,0.8c0,0.4-0.1,0.7-0.2,1
				c-0.1,0.3-0.3,0.4-0.4,0.5c-0.1,0-0.2,0.1-0.2,0.1l-0.1,0c0,0,0,0-0.1-0.1l-0.1-0.1c-0.4-0.7-0.7-1.3-0.7-0.7
				c-0.3-1.1-0.5-2.2-1.1-2.8c0.2-2.1,0.9,2.5,1.2,1.6c-0.6-2.8-1.3-5.2-1.8-7.7c-0.5,0.7,0.4,3.1,0.7,4c0,1.6-1.1-1.8-0.9,1.3
				c-0.3-0.4-0.4-1-0.4-1.7c-0.3,0.7-1-0.8-1.7-2c0.1-0.8,0.7,1.1,0.7-0.3c-0.3-1.1-0.6-2.1-1-3c-0.4-0.6-0.4,0.9-0.5,2
				c-0.3-0.9-1.1-1.4-1.1-2.5c0.2-1.9,0.6,1.7,0.9,0.7c-0.3-2.6-0.9-1-1.2-2.7c-0.1,0.7,0.1,1.1,0,1.8l-1.3-2.4
				c-0.3-1.6,1,2.1,1,0.4c-0.2-1.5-1.1-1.3-1.6-2.4c0.6,2.6-0.9-0.9-1.4-1.6c-0.3-1.3,0.8,1,1.1,1.5c0.1-1.9-1-2.3-1.4-2.6
				c-0.2-1.6-1-3.9-1.7-3.7c-0.1,1.1,0.9,1.9,1.3,2.9c-0.2,0.8-0.5-0.8-0.8-1c-0.5-0.9-1-2.2-1.4-1.8c-0.5-2.4-1.2-2.9-2.1-5.1
				c-0.2-0.2-0.4,0.3-0.5,0c-0.4-0.6-0.3-1.2,0.1-1.8c-0.7-0.5-1-1.3-1.2-2.2c-0.3-0.8-0.5-1.7-1-2.2c0.1-0.9,0.4-0.3,0.8-0.6
				c-0.2-0.3,0-0.6-0.2-1c-0.2-0.3-0.7,0.3-0.5,0.6c-1,0.1-1.2-1.5-1.9-2.3c-0.3,0.2-0.5,0.4-0.4,0.8c-0.7-0.3-0.5-1.6-1.4-2.3
				c0.7,0.3,1.1-0.7,0.9-1.4c0.7-0.3,0.1,0.7,0.5,1c0.4-0.3,0.5-0.7,0.2-1.2c-0.7-1-0.9,0.9-1.6,0.5c-0.2-1.5-0.3-1.5-1-3.2l0.6-0.3
				c-0.6-1.3-1.5-1.3-2-2.7c0.7,0.1,0.3-0.6,0.4-0.8c0.2-0.3,1-0.3,0.7-0.9c-0.9-0.5-0.3,1.1-1.3,1.2c-0.6-0.9,0.5-1-0.1-1.9
				c-0.2-0.3-0.4,0.2-0.3,0.4c-0.8-0.2-0.2-1.1-0.5-1.7c-0.2-0.6-1-1.1-1.3-1.7c-0.3-0.6-0.2-1.3-0.7-1.7c0.3-0.2,0.5,0.1,0.8,0
				c-0.3-0.7-1.1-0.6-0.8-1.3c0.5-0.3,0.5,0.6,1,0.4c-0.1-1-0.8-0.4-1.1-1.2c-0.5,0.4-0.1,1.2-0.9,1.5c0-0.2-0.5-0.8-0.4-0.9
				c0-0.1,0.5,0.2,0.5,0c0.3-0.8,0.4-1.5,0.1-2.8c-0.5-0.6-0.2,0.9-0.9,0.4c-0.2-0.7-0.2-1.4-0.4-2.1l0.7-0.3
				c0.1-0.6-0.3-0.5-0.4-0.9c-0.2-0.9,0.4-1.2-0.8-1.3c0,0.6-0.1,1.9-0.8,0.6c-0.3,0.6,0.7,1.8,0.9,2.7c-0.7,0.4-0.9-0.9-1.2-1.5
				c-0.4-0.7-0.7-1.6-0.9-2.1l1.1-0.5c-0.4-1-1-1.1-1.5-0.5c-0.2-0.5-0.4-1-0.6-1.4c0.3,0,0.5,0.3,0.9,0.2c-0.6-1-0.2-1.6-0.9-2.7
				c0.2,0,0.3,0.1,0.5,0.1c-0.5-1.9-1.2-2.8-1.7-4.6c-0.9,0.1-1.5-0.5-1.8-1.8c-0.8,0.4,0.8,1.2,0.4,2.1c-0.7-0.2-0.8-1.8-1.3-2.5
				c0.3-0.2,0.5,0,0.6,0.3c-0.1-0.9,0.8-0.3,0.9-0.9c-0.3-1.2-0.4,0.6-0.9-0.2c-0.7-1,0.8-0.9,0-1.9c-0.2-0.4-0.7,0.7-1.2,0.2
				c0.3-0.8-1.3-1.8-0.2-1.6c-0.9-1-1.4-2.1-1.6-3.2c-1.2,0.1-0.1,1.2,0,1.9c-0.9,0.2-0.6-1-0.9-1.6c-0.3-0.5-0.9-0.6-1-1.2
				c0.6-0.5,0.9,0,1.1,0.7c0.5-0.2,0.2-0.8-0.1-1.4c0.6-0.1,0.9,0,1-0.7c-0.2-0.3-0.8,0.7-1.3,0c-0.7,0-0.3,1.3-1,0.7
				c-0.3-0.6,0-0.4,0.3-0.4c-0.7-1.1-0.7-1.5-1.2-2.8c1.1-0.5,0.2,1.3,1.2,0.9c0.4-0.8-0.1-0.8-0.2-1.6c-0.2-0.5-0.7,0.3-0.7,0.3
				c-0.9,0.1-0.2-0.9-1.2-0.3c-0.2-0.9-1.2-1.3-0.9-2.1c-1-0.2-1.4-2.6-2.4-4.3c-0.5-1-0.8-1-0.6-2c-0.2-0.2-0.5,0-0.6-0.3
				c-1.1-3.1-2.6-4.5-3.2-7.3c-0.2-0.2-0.5,0-0.7-0.3c-0.3-0.5,0.2-0.7-0.3-1.3c0.7-0.6,0.9,0.2,1.4,0.2c-0.2,0.6-0.4,1.8,0.5,2.3
				c0.6-0.4-0.3-0.9-0.2-1.6c0-0.2,0.5-0.4,0.6-0.5c0-0.5-0.3-1-0.4-1.5c-0.8,0,0.2,0.8-0.7,0.9c-0.5-0.2-1.5-1.4-1.4-0.2
				c-0.4,0-1.5-1.9-0.6-2c-1.3-0.8-1.5-2.8-2.4-4.8c-0.5-1.1-1.1-2.2-1.8-3.3c-0.6-1-1.1-1.7-1.5-2.4c-0.4-0.4,0.2-0.7,0-1
				c-0.4-0.3-0.4-0.9-0.5-1c-0.2-0.2-0.8,0.3-0.8-0.6c0.4-0.9,0.5,0,0.8,0.1c0.2,0,0.6-0.2,0.7-0.1c0.2,0.2,0,1.6,0.7,0.9
				c0.3-0.3-0.3-0.2-0.3-0.6c0-0.1,0.9-0.9,0.2-1.3c-0.5,0.3,0.6,0.9-0.3,1.1c-0.7-0.8-0.7-2.6-1.2-3.5c-0.6,0.7,0.6,1.5,0.3,2.2
				c-0.6,1-0.8,0.1-1.3,0.7c-1.2-1.5-1.6-3.5-2.2-5.4c-1-0.4-1.7-1.4-2.1-3.1c-0.5,1-0.4,1.7-0.2,2.2c-0.3,0.6-0.5-0.5-0.8,0
				c-0.4,1.2,0.2,0.5,0.4,0.7c0.3,0.5,0.5,1.5,0.8,2.1c0.1,0.1,0.3-0.4,0.4-0.2c0.4,0.5,0.3,1.1,0.3,1.7c0.3,0.2,0.1-0.6,0.5-0.6
				c0.2,0.8,0.5,1.3,0.9,1.9c0.4,0.5,0.7,1.1,0.8,1.9c-0.8,0.2,0,1.4-0.6,2c0.1,0.5,1-1.1,1-0.2c0.2-0.2,0-0.4,0-0.7
				c-0.1-0.7,0.4,0.1,0.4,0.3c0,0.6-0.3,1.1,0,1.6c0.7-0.3,0.2-0.6,0.1-0.9c0.7-0.5,0.4,0.4,0.6,0.7c0.2,0.3,0.5,0.7,0.8,1.1
				c0.1,0.2,0.3,0.4,0.4,0.7c0.1,0.2,0.3,0.6,0.4,1c-0.4,0.3-0.6-0.1-0.8-0.5c-0.8,0.9,0.7,1.3,1.2,1.4c0.8,1.9-0.1,2.5,0.8,4.1
				c0.9-0.2-0.2-1.2-0.3-1.8c1.9,1.3,1.8,4.1,2.7,5.5c0.1,0.2,0.6,0.2,0.6,0.3c0.2,0.3-0.5,0.2-0.4,0.2c0.2,0.5,0.9,0.8,1.1,1.2
				c0.4,0.9-0.2,1.5,0.2,2.1c0.2,0.3,0.5,0,0.8-0.1c0.7,2.3,2.4,3.9,2.2,5.7c0.1,0.3,0.3,0,0.2-0.1c0.7,0.6,1.6,2.8,1.3,3.6
				c0.4,0.4,0.8,0.9,1.3,1.1c0.7,1.9,1.3,4.7,1.7,7.1c-0.9,0.8-0.9,1.6-1.8,1.9c1.1,1.9,1.3,3,2.1,5c0.3,0.2,0.6,0.2,0.9,0.2
				c0.3,0.5,0.3,0.9,0.3,1.3c0.3,0.5,0.5-0.5,0.5-0.8c-0.2-1.2-1.5-0.9-1.1-2c0.6,0.3,1.2,0.9,1.6,1.9c0.2-0.2,0.3-0.4,0.2-0.7
				c0.5,0,0.2,0.3,0.2,0.5c0,0.2,0,0.7-0.7,0.8c0.1,0.3,0.3,0.6,0.4,0.9c0.1,0.3-0.1,0.9-0.1,0.9c0.2,0.4,0.9,0.2,0.9,1
				c-0.8,0.4,0,1.5-0.7,2c0.6,0.6,0.7-0.7,1.2-0.2c0.4,0.7,0.2,1.3-0.4,1c0.9,0.3,0.2,2,1.4,1.4c0.7-0.5-1.1-0.8-0.5-1.2
				c0.6-0.6,0.8,0.9,1,1.2c0.1,0.2,0.7,0.4,0.7,0.5c0.7,1.2,1.6,3.1,1.2,4c0.6,0.5,0.6,1.8,1.1,2.6c0.3,0.5,0.9,0.9,1.3,1.1
				c0.2-1.3-1.1-1.8-1.2-2.9c1,0.1,1.2,1.1,1.6,1.9c0.3,0.7,0.3,1.9,1,3c-0.6,0.5-0.7-0.4-1.2-0.3c0.5,0.6,1.2,0.9,1.7,1.5
				c-0.4,0.8,0.3,1.1,0.5,2.3c0.6-0.2-0.8-1.2,0.3-1.2c0.4,0.7,0.5,2,1.3,1.7c-0.1,0.7,0.2,1.6-0.4,2.1c0.3,0.3,0.6,0.8,1.2,0.3
				c0.5,0.5-0.2,1.3,0.6,0.9c0.4,0.9-0.4,1.2-0.5,1.9c0.5,0.6,0.1-0.8,1-0.7c0,2,1.5,3,1.8,4.6c0.3,0.2,0.6,0,0.8,0.5
				c-1.2-0.2-0.1,0.7-0.8,1.2c0.3,0.1,0.6,0.4,1,0.9c0.4,0.4,0.7,0.7,0.8,0.3c0.8-0.1,0,0.7,0.2,1c0.6,0.7,0.4-0.7,1-0.2
				c1.2,3,2.7,5.3,3.8,7.5c0.2,0.5,0.1,0.7,0.3,1.1c0.4,0.7,1.1,0.9,1.5,2c0.1,0.3,0.4,0.9,0.3,1.6c0.6,0.9,1.3,2.2,1.9,3.2
				c1.8,2.8,2.9,5.3,3,9.3c-0.5,1.1-0.7,2.3-0.3,3.4c-0.2,0.5-0.5,0.2-0.9-0.7c0.2,1.3-1.2,1.5-0.3,3.5c-0.7-1-1.1,0.5-1.7,0.4
				c-0.2,0-0.7-1.7-0.8-0.5c-1.7-4.4-4.1-8.3-5.9-12.3c-0.3-0.6-0.3-1.6-0.6-2.3c-0.4-1-1.2-1.7-1.6-2.8c-0.3-0.7-0.2-1-0.5-1.7
				c-0.6-1.3-1.6-1.5-1.4-3c-0.2-0.4-0.5,0-0.7-0.4c-0.4-1.1-1.1-2-1.5-3c-0.1-0.2-0.1-0.6-0.1-0.9c0-0.3,0-0.5,0-0.5
				c-0.2-0.4-0.7-0.5-1-0.9c-0.6-0.8-0.7-2.1-0.9-2.5c-0.2-0.4-0.6-0.4-0.9-0.8c-0.5-0.7-0.7-1.5-0.8-2.5c-0.1-0.4-0.4-0.4-0.7-0.3
				c-0.3-1.6-1.4-3.4-2.4-5.5c0.1-0.6,1.1,0,0.9-1c-0.6-0.6-0.7,0.7-1.2,0.2c-0.7-1.9-0.9-2.6-1.8-4.3c0.3,0,0.6,0.1,0.7,0.5
				c0.5-1.2-1.1-1-1.2-0.9c-0.7-1,0.7,0.1,0.5-0.8c-0.1-0.6-0.5-0.3-0.9-0.2l-0.7-1.7c0.3-0.6,0.3-0.1,0.9-0.4l-0.3-0.7
				c-0.4-0.4-0.5,1.3-1.1-0.1c-0.5-0.9,0.3-0.1,0.8-0.6c-0.3-0.6,0.2-0.6-0.4-1c-0.2-0.5-1,0.3-1.4,0.3l-0.7-1.7
				c0.3,0.1,0.6,0,1-0.1c-0.4-0.2-0.5-1.3-1.3-0.6c-0.8-1.2-0.6-2.1-0.1-2.8c-0.1-0.5-1.6-0.6-0.5-1.2c-0.5-0.6-0.7,0.9-1-0.4
				c-0.2,0.2-0.3,0.4-0.2,0.7c-0.1-0.1-1.6-1.9-0.3-1.9c-0.3-0.7-1-0.2-1.3-1.2l0.7-0.3c-0.4,0-0.7-0.6-1.1-0.7
				c-0.3-0.7,0.1-1.1,0.4-1.6c-1,0.4-1.3-1.5-1.6-1.9c0,0-0.2,0.7,0.1,0.8c-1.2-1-1-3-1.9-4.5c0.6-0.7,1.1-1.2,1.3-2.5
				c-0.1-0.8-0.8-0.2-0.9-1c-0.5,1-1.3-0.3-1.2,0.8c-0.6-0.1-0.6-1.7-1.6-0.7c-1.8-2.5-2.6-6.5-4-8.8c0.9-0.2,1,1.2,1.4,2.1
				c0.4,0.8,0.7,1.8,1.2,2.3c0.1-0.6-0.1-1.3,0.3-1.8c-0.2-1-1.2-0.2-1.5-1l0.4-0.2c-0.6-1.1-0.5-1.8-0.3-2.6
				c-0.2-0.2-0.5,0-0.6-0.3l-0.7-1.6c0.1-0.7,0.4-0.3,0.5-0.8c-0.4-0.9-0.3,0.2-0.9-0.2c-0.3-0.6-0.4-1.5-1.2-0.9
				c-0.2-1.6-1.5-3.5-1.8-4.7c0.9,0.5,1.2,2.5,1.9,3.6c0.4,0.1,0.8,0.4,1.4,0.2c-0.2-0.6-0.5-1-1.1-0.6c0.1-1.1-0.8-1.5-1.2-2.8
				c0.4,0.1,0.4-0.1,0.7-0.3c-1.1-1.9-2.1-3.7-3.3-6.2c0-0.7,0.8,0.1,0.8-0.6c-0.5-1-1,0.9-1.4-0.7c0.3-0.7,1.3-0.2,1.7,0.3
				c0.7-0.5-0.4-1.7-1.2-0.8c-0.1-0.5-0.5-0.8-0.4-0.4c-0.6-1.1-1.2-2.3-1.8-3.6c-0.2-0.6-0.5-1.2-0.7-1.8c-0.5-1.2-1.1-2.4-1.8-3.1
				c-0.1-0.1-0.2,0.2-0.1,0.2c-0.2,0-0.3-0.6-0.6-0.8c0.4-0.9,0.4,0,0.6-1c0.1-0.9-0.1-0.6-0.1-0.8c0-0.6,0.2,0.4,0.5,0
				c-0.1-0.8,0-1.7-0.2-2.4c-0.6,1.2-1,1.5-1.5,1.9c-0.1-0.4-0.2-0.8,0.1-1.8c-0.6,0.6-0.6-1.1-1.3-1.9c0-0.4,0.1-1,0.2-1.7
				c-0.1-0.4-0.2,0.3-0.3,0.9c-0.2-0.9-0.6-1.1-1-1.8c-0.6-1-1.1-3.1-1.7-4.3c-0.3-0.6-0.5,0.2-0.7-1.6c-0.1,0-0.1,0.7-0.2,0.7
				c-0.2-0.4-0.3-1.4-0.5-2.2c-0.2,0.5-0.5,0.1-0.9-0.6c-0.2-0.4-0.4-0.8-0.6-1.2c-0.1-0.2-0.2-0.4-0.3-0.6l-0.2-0.3
				c0,0-0.1,0.1-0.1,0.2c-0.1,0.1-0.1,0.3-0.1,0.5c-0.3-1.1-0.1-1.3-0.4-3.1c-0.2,0.8,0.3,4.1-0.1,4.2c-0.1-1.1-0.1-1.8-0.4-3.7
				c-0.3,0.1,0.2,2.9-0.3,1.5c-0.2-1.2,0.2-1,0-2.4c-0.3-0.9,0,2.7-0.3,2.5c-0.3-1.4-0.3-2-0.1-2.2c-0.4-1.6,0,1.5-0.2,1.4
				c-0.2-1.1-0.3,0.5-0.5-0.3c0,1.3,0.4,4.2,0.1,3.9c-0.1-0.8-0.4-2-0.5-2.8c0.1-0.3,0.3,0.3,0.3-0.1c-0.5-2.5-0.6-0.5-0.7,0.2
				c-0.4-1.4-0.2-1.9-0.6-3.3c0,0.8,0.2,1.8,0.2,2.6c-0.1,0.8-0.5-0.6-0.8-1c0.1-0.5,0.2-1.7,0.4-2.6c0.2-0.9,0.5-1.4,0.9-0.4
				c0.1-0.7-0.2-0.6-0.3-1.8c0.3-0.5,0.6-2.4,0.9-1.8c0.1-0.2-0.1-0.8-0.1-1.3c0.3-1.1,0.7-0.3,0.8-1.9c0-0.3,0-0.7,0-1.2
				c0.5,2.3,1.5,2.8,1.9,2.5c0.3,1.7,0.8,2.3,1.2,3.2c-0.1-2-0.6-2.5-0.9-3.8c0-2,0.3,0.5,0.6,0.9c0.3,0.5-0.1-1.8,0-2.5
				c-0.8-1.7-1-0.3-1.2,0.7c-0.4-0.8-0.8-1.4-1.1-1.9c-0.2-0.3-0.3-0.5-0.5-0.7c-0.1-0.1-0.2-0.2-0.2-0.3l-0.1,0.4
				c-0.3,0.8-0.6,1.5-0.9,1.9c0.1-1.2-0.3-3.5-0.2-4.5c-0.2-1.2-0.4,1.1-0.6,0.1c0.2,1.2,0.3,1.7,0.4,1.3c0.3,1.8-0.2,2-0.4,2.8
				c-0.2-0.8-0.3-2.2-0.5-2c-0.4,0.3,0.5,2.7-0.1,2.7c-0.2-2.1-0.1-1.7-0.6-2.4c-0.1,0.7,0.2,1.4,0.3,0.8c0.1,0.8-0.2,0.8,0,1.7
				c-0.3-0.4-0.6-0.4-0.9-2.5c-0.4,0.7,0.1,2.6-0.5,3c-0.3,1-0.7-1.4-1-0.3c0,1.3-0.1,2.5,0.5,3.7c-0.4,1.2-0.4,2.6,0.1,3.9
				c-0.1,0.9-0.4-0.1-0.5,0.6c-0.3-0.8-0.2-1.1-0.1-1.5c-0.4-1.2-0.7-1.1-1-1.2c0,1.6,0,1.4-0.5,1.6c-0.6-1,0.1-1.1-0.4-2
				c-0.3-0.9-0.2,0.8,0.1,1.2c-0.2,0.8-0.1,1.8-0.5,2.5c0.3,0.9,0.6,1.4,0.8,1.6c-0.1-0.8,0.2-1.3,0.3-1.9c0.7,2.1,0.8,0.1,1.5,2.1
				c-0.4,1-0.9,2.7-1.3,4.3c-0.4,1.6-0.9,3.2-1.4,3.9c-0.8-1.3,0-0.8,0.1-1.1c0.5-1.7,1.2-4.6,1.9-6.3c-0.5-0.2-0.7,1.1-1.3,0.1
				c-0.3,0.5,0.6,1.7,0.1,2.1c-0.1,0.7-0.4-0.3-0.5,0c-0.4,0,0.1,1.2,0.1,1.3c0,0.1-0.2,0-0.3,0.1c-0.1,0.2,0.1,0.7,0,0.8
				c-0.3,0.9-0.9,1.1-0.8,2.8c0,0.5-0.3,0.2-0.5-0.1c-0.1,0.8,0.4,0.4,0.7,1.1c-0.1,0.6-0.6-0.1-0.8,0.1c-0.2,0.4,0.6,1,0.9,1.5
				c-0.3,1.8-0.5,3.6-0.9,5c-0.1,0.2-0.5-0.1-0.5,0c-0.1,0.2-0.1,1.1-0.1,1.4c-0.1,0.4-0.5,0.9-0.1,1.4c-0.2,0-0.3,0.5-0.6,0.3
				c0.2,0.7-0.1,1.6-0.4,2.5c-0.3,0.9-0.6,1.9-0.5,2.8c-0.8,0-0.3-0.7-0.7-0.9c0.5-0.8,0.6-1.2,0.6-2.2c0-0.5-0.8-0.6-0.4-1.2
				c-0.9,0.3,0.1,1.6-0.1,2.2c-0.6,0-0.4,1.5-1.3,1c0.2,0.5,1,0.1,1.3,0.9c0,0.7-0.5,0.4-0.5,1.1c0.3,0.2,0.5,0.1,0.5-0.1
				c0.1-0.2,0.1-0.5,0.2-0.7c0.2,0.3,0.3,0.6,0.3,1.1c0,0.5-0.1,1-0.2,1.5c-0.1,0.7-0.3,1.4-0.5,2c-0.1,0.3-0.7,0.6-0.7,0.6
				c-0.1,0.3,0.3,0.5,0.3,0.6c0,0.6-0.8,0.8-0.2,1.6c0,0.4-0.3,0.4-0.6,0.4c-0.3,0.7,0.3,0.9,0.1,1.6c-0.4-0.2-0.4-0.6-0.2-1.1
				c-0.5,0-0.7,0.6-1.2,0.8c-0.1,0.6-0.2,1.2,0.7,1.2c-0.2,0.1-1,1.3-0.1,1.3c0.6-0.1-0.1-1,0.5-1.7c0.3,0.3,0.1,0.9,0.1,1.4
				c0.7,0,0.8-1.2,1.6-1.2c0-1.2,0.3-1.3,1-1.9c0.5,0.3-1.2,0.8-0.1,1.3c0.3,0,0.4-0.4,0.1-0.5c0.8-0.7,1.2,1.6,1.6-0.4
				c1.1,0.4-1,1.9,0.1,2.4c0.5-0.9,1.2-1.3,1.4-2.6c0-0.8-0.7,0.2-1.2-0.3c0.4-0.6,1.1-0.4,1.7-0.6c0.1-0.6-0.2-1.1,0.4-1.5
				c1,1.2-0.4,2.7-0.4,4.4c-0.3-0.2,0-0.8-0.8-0.7c-0.5,0.9,0.9,0.7,0.3,1.7c0.3,0.1,0.4,0.1,0.5-0.1c0.3,1,0.3,2.1,1.3,2.5
				c0,0.9-0.6,0.7-0.8,1.1c-0.5,1.1-0.1,1.6-0.4,2.6c-0.5-0.1-0.7-0.4-0.5-0.9c-1.3,0.4-0.6,2.7-2.1,2.4c0,1.1,1.3,0.3,1.8-0.1
				c0.5,0.1-0.1,0.9-0.1,1.3c-0.5-0.9-1.1,0.1-1.8,0.1c0.1,1.4,1,2.2,0.4,3.9c0,0.7-0.6,0.4-0.9,0.6c0,0.2,0.2,0.3,0.1,0.6
				c0.1,0.6,0.8-0.6,0.9,0.5c0,0.6-0.5,0.4-0.8,0.3c0.1,0.8,0.4,1.6,0,2.7c-0.3,0.6-0.9,0.5-1,1.6c0.3,0,0.3-0.4,0.4-0.7
				c0.5,0.9-1.1,3.5-1,5.2c-0.4,0.5-1.2-0.1-1.5,0.7c0,0.4,0.3,0,0.7,0.2c-0.5,1.4-0.9,2.9-1,4.1c-0.7-0.2-1.2,0-1.3,1
				c0.3-0.1,0.4-0.5,0.8-0.3c0.1,0.6-0.6,0.3-0.6,0.4c-0.3,0.5,0.3,1.4-0.6,1.8c-0.5-1.1,0.3-1.7,0.5-3.2c0.1-0.6-0.7-0.7-0.3-1.5
				c0.6,1,0.8-1.8,1.4-2.1c-0.1-0.3-0.3-0.6-0.5-1c0.4-0.6,1.1-0.4,1.7-0.6c-0.4-1,0.8-0.7,0.8-2c-1.3-0.8-1.4,1.3-2.3,0.1
				c0.6-0.5,1.2-1,2.2-0.7c0.5-1-0.3-1.3-0.8-0.8c-0.3-0.3,0-0.6,0.4-0.4c0.1-0.9,0.6-1.1,1-1.6c0.2-0.5-0.9-0.7-0.8,0.1
				c-0.6-0.5,0.7-1,0.2-1.6c-0.4-0.2-0.5,0.1-0.8,0.1c0.2,0.5-0.5,1.6,0.3,1.7c-0.1,1.1-0.9,0.6-1,1.6c-0.6,0-0.2-0.6-0.5-0.7
				c-0.5-0.1,0.1,0.5,0.1,0.6c-0.1,0.3-0.6,0.3-0.7,0.6c-0.1,0.4,0.3,0.8,0.1,1.4c0,0.4,0.5,0.4,0.8,0.5c-0.2,1-1,1-1.4,1.5
				c-0.3,0.8,0.4,0.9,0.6,1.3c-0.5,0.5-1.2,0.5-1.8,0.8c0.8,0.8,0.3,2.3,0.1,3.6c-0.8-0.5-0.6,0.9-0.9,1.4c-0.1,0.8,1.1,0.9,0.4,2.1
				c-0.2-0.3-0.2-0.6-0.2-0.9c-0.6-0.1-0.5,1.1-0.4,1.3c0.3-0.1,0.6-0.1,0.8-0.3c0.9-0.5,0.6-1.1,1.2-0.5l0.7-2.3
				c0.7,0.7-0.4,1.6-0.7,2.9c-0.2,0.9-0.6,2.5-1.3,4c-0.6-0.4-0.9,0-1.4-0.2c-0.7,1.2-0.5,1.9-1.3,2.9c-0.5-0.3-0.6-0.7-0.5-1.3
				c-1,0.5,0.4,1.4,0.3,2.1c-0.2,0.9-1,0.3-1.2,1.3c-0.1,0.5,1,0.3,0.9-0.5c0.9,0.9-0.7,0.8-1,1.3c-0.1,1.1,0.7,0.6,1.1,1.2
				c-0.5,1-0.9-0.7-1.4,0.3c0.5,0.3-0.3,1.3,0.7,1.4c-0.7,0.6-0.6,2.2-1,1.3c-0.1,0.7-1,1.9-0.6,2.3c-0.3,0.4-0.4-0.1-0.7-0.3
				c-0.5,0.7,0.6,0.6,0.6,1.1c-1,0.1,0.1,0.8-0.8,2c-0.4-0.3-0.5-0.8-0.8-1.2c2.1-4.6,1.8-6.8,3.1-11c0-0.4-0.4-0.2-0.5,0.1
				c0.1-0.9,0.1-2,0.4-2.6c0.1-0.2,0.6-0.3,0.7-0.6c0.1-0.2,0-0.7-0.1-0.6c0.2-0.4,0.5,0.6,0.8-0.8c1.3,0.9-0.2,1.9-0.2,2.7
				c1.2-0.8,2.1-2.2,2.9-4.1c0.1,0.2,0.3,0.4,0.6,0.5c0.1-1.1-0.9-0.9-1.7-0.9c-0.6,1,0.5,1.1,0.1,2c-1-0.5-1.7-1.8-2.4-0.3
				c0.6-2,0.5-5.2,2.1-7.3c-0.4-1,0.4-2.7,0.8-4.1c0.1-0.5-0.8-0.5-0.4-1.2c0.8-0.4,1.2-0.3,1.8-0.3c0.1-1.3,0.2-1,0.5-2.6
				c-0.5-0.2-0.7,0-1,0c0.4,0.5,0,1.5,0.4,2c-1.9,1.1-1.7-1.6-1-2.7c0,0,0.4,0.4,0.4,0.4c0-0.1,0.4-1.5-0.1-1.4
				c0.5-1.4,1.1-4.6,1.4-6.9c0.2-1.6,1-3.1,1.2-4.5c0.1-0.7-0.2-1.6-0.1-2.4c0.2-1,0.5-2,0-2.7c-0.8-0.1-0.9,1.3-1.8,1.1
				c0.2,1.2-0.5,3-1.6,3.1c0.8,0.5,0.9,1.4,0.8,2.4c0.6,0.4,0.7-0.2,1.2,0.1c-0.1,1.6-1.5,0.4-2,0c-0.2,0.2-0.3,1.3-0.8,1.9
				c-0.1,0.5,1-0.1,1.1,0.6c0.5,0-0.5-1.4,0.5-1.7c0.2,0.3,0.3,0.8,0.7,1c-0.8,1.7-1,4-1.9,6.7c-0.7,0.7,0.5-1.5-0.3-1.4
				c-0.6-0.1-0.7,0.7-0.9,1.4c-0.3,0.6,0.8,0.5,0.4,1.2c-0.5-0.8-1,0.1-0.9,0.5c0.1,0.6,1,0.3,0.1,0.6c-0.8,0.2-1.2,0.9-1,1.6
				c0.5-0.1,0.7-1,1.4-0.7c-0.1,0.8-0.8,0.5-1,1c0,0.2,0.2,0.3,0.1,0.6c0.6,0.4,0.6-0.4,0.9-0.5c0.6-0.1,0,0.8,0,0.8
				c0,0.6,0.2,0.7,0.2,1.1c-0.2,1.1-0.9,2.6-1.2,4c-0.4-0.8,0.1-1,0.4-2.1c-0.6-0.2-0.7,0.7-0.9,1.4c-0.7-0.2-1,0.3-1.5,0.6
				c0.1,0.9,0.8-0.5,1.5,0.2c-0.3,1.5-1.7,0.6-2.4,1.2c-0.3,0.9-0.7,1.5-1.2,2.1c-0.1,0.5,0.7,0.4,0.8,0.8c-0.2,1.3-1.4,0.7-1.5,2.2
				c-1-0.5-1.3,0.6-2.3,0c0.9-0.6,0.3-1.8,0.1-2.4c-0.3,0-0.4,0.5-0.6,0.9c-0.1-0.3-0.4-0.4-0.8-0.5c0.1-0.5,0.4-0.7,0.9-0.5
				c0.2-0.3-0.7-0.9,0-0.8c0.5-0.2,0.6-0.1,0.3,0.6c0.6-0.3,1.3,0.1,1.3,0.7c0.8-0.1-0.1-1,0.2-1.5c0.6,0.1,1-0.1,1.7,0.3
				c0.2-0.7-1.1-0.6-0.8-1.4c-0.6-0.3-0.5,0.9-1.1,0.4c0.2-0.3,0.1-1.4,0.6-1.2c-0.2-0.5-0.6-0.9-0.2-1.7c0.6,0.7,1.3,0.7,1.5-0.6
				c0.7-0.5,0.4,0.8,1.1,0.4c-0.2-0.4-0.5-0.7-0.1-1.4c0.4,0.2,0.5-0.1,0.6-0.4c0.5,0.3,1.2,0.9,1.8,0.6c-0.1-0.5-0.8-0.6-0.3-1.5
				c1,0,0.2,1,1.2,0.9c0.6-0.9-0.4-0.8-0.6-1.3c0.2-0.5,1.1,0.3,1-0.8c-0.2-0.2-0.8-0.3-0.9-1.1c-0.6,0,0.5,0.8-0.2,1.6
				c-0.5-0.6-0.6,0.4-0.9,0.5c-0.2,0.1-0.5-0.2-0.7-0.2c-0.3,0-0.4,0.6-0.8,0.3c-0.1-0.3-0.1-0.8,0.1-1.3c0.3,0.2,0.2,0.5,0.5,0.7
				c0.2-0.6,0.2-1.1-0.1-1.4c-1.1-0.2-1.3,1-1.4,2c-0.8,0-0.2-0.7-0.2-1.1c-0.7,0.3-1.3,0.4-1.6-0.5c-0.3,0-0.3,0.4-0.6,0.4
				c-0.1,0.6,0.6,1.1-0.2,1.5c-1-0.5,0.1-2.4,0.4-3.9c0.2-0.8,0-1.6,0.4-2.3c0.2,0,0.2,0.9-0.1,1.1c0.7-0.6,0-0.9,0.2-1.5
				c0.1-0.4,0.7-0.6,0.7-0.6c0.1-0.4-0.4-0.9-0.3-1.4c0-0.4,0.4-0.5,0.5-0.9c0.2-0.8-0.1-2,0.7-2.5c1.1,0.5,1.3,1.6,0.5,2.8
				c0.8,0.1,1-0.9,1.2-1.8c0-0.8-0.3-0.4-0.9-0.5c0.2-0.5,0.2-0.8-0.3-0.9c0.1-0.5,0.6-1.2-0.2-1.1c-0.5-0.1,0.1,1-0.6,1.2
				c-0.3-1.3,0.7-2.5,0.9-4c0-0.3-0.3-0.7-0.2-1.1c0.2-1.1,0.5-2.6,0.8-3.8c0.4-1.9,0.8-4,1.4-5.2c0,0,0.4,0.2,0.5,0.1
				c0.3-0.2-0.3-0.8,0-1.1c1.4,0.9-0.3-0.6,0.5-1.7c0-0.3-0.4-0.3-0.6-0.4c0.3-1,0.4-2.5,1.2-2.6c0.3-0.8-0.6-0.8-0.1-1.6
				c0.8,0,1.1,0.4,0.7,1.2c0.7,0.2,0.9-0.6,1.1-1.3c-0.7-0.4-0.9,0-1.5-0.1l0.2-1.1l0.2-1.2l0.6-2.7c0.4-1.8,0.8-3.6,1.2-5.5
				c0.9-3.6,1.8-7.2,2.8-10.7c2-7,4.2-13.3,6.2-19.7c0.7-2.1,1.2-4.1,2-6c0.2-0.4,0.1-1,0.2-1.3c0.3-0.8,1-2.3,1.6-3.9
				c0.3-0.9,0.5-2.5,0.9-3.3c0,0,0,0,0-0.1c0,0,0.1,0,0.1-0.1c0.1,0,0.1-0.1,0.2,0.1c0.2,0.2,0.3,0.5,0.5,0.8
				c0.4,0.6,0.8,1.2,1.2,1.9c0.9,1.3,1.8,2.6,2.4,3.3c0.8,0.9,1.8,1,2.9,4.3c0.8,0.8,1.5,1.4,2.1,3.3c-0.1-0.6-0.4-1-0.3-1.7
				c1.2,2.5,2.1,3.1,3.6,5.7c-0.1,0.4-0.4,0.1-0.4,0.6c0.6,1.4,0.6-0.6,1-0.2c0.4,0.7-0.1,1.7-0.2,1.8c0.5,0.5,0.8,0.2,1.3,0.7
				c0.4,1.4,0.8,1.4,1.4,2.3c0.3,0.5,0.4,1.3,0.7,1.6c0.4,0.6,1.3,0.7,2,2.5c0.2,0.5,0.2,1.2,0.3,1.4c0.2,0.5,0.8-0.3,0.7,1.3
				c0.6,0.6,2.1,2.1,2.8,3.2c0.3,0.5,0.4,1.2,0.4,1.3c0.3,0.5,0.5,0.3,0.7,0.9c0.3,0.6,0,1,0.1,1.3c0.1,0.2,0.4,0.3,0.6,0.6
				c0.6,1.2,1.3,3.3,2,4.3c0.3,0.4,0.7,0.5,1.1,1c-0.1,0.4,0,0.8,0,1.1c0.6,0.3,1,1.5,1.4,2.3c0.3,0.6,1,1.1,1.4,1.7
				c0.3,0.5,0.1,0.7,0.3,1.2c0.8,1.5,2.1,3.5,3,5.2c0.2,0.4-0.1,0.5,0.1,0.8c0.8,1.6,1.9,2.8,2.3,3.8c0.2,0.5-0.1,0.5-0.1,0.9
				c0.7,1.2,1.5,2.1,2.1,3.6c-0.2,0.3,0,0.6-0.5,0.8c0.2,0.3,0.5,0,0.8-0.1c0.6,1.6,2.2,2.2,1.7,3.8c0.5,0.8,0.4,0.8,1,1.8
				c-0.2,0.4-0.1,0.8-0.9,0.9c0.5,1.1,0.6,0.1,1.2,0.3c0.7,1-0.1,1.4,0.5,2.3c0.2,0.4,0.8-0.2,1.1,0.1c0.1,1.4,1.4,2.8,1.9,4.5
				c0.2,0.5,0,1.3,0.3,1.8c0.6,1.5,2.6,3.7,1.9,5.1c0.3,0.2,0.6,0.2,0.9,0.2c0.1,1.8,1.6,2.3,1.8,4.3c1.1,0,0.8,0.7,1.5,1.6
				c0.3,0,0.5-0.7,0.5-0.8c-0.1-0.3-0.6-0.3-0.7-0.5c-0.2-0.3,0.1-0.6-0.1-0.8c-0.2-0.3-0.7-0.5-0.8-0.8c-0.3-0.5-0.2-0.9-0.4-1.5
				c-0.2-0.6-0.8-1.2-1-2.4c-0.1-0.3,0.2-0.8,0.1-0.9c-0.1-0.3-0.7-0.9-0.9-1.6c-0.3-0.8-0.4-0.9-0.8-1.9c-0.3-0.9-0.8-2.1-1.4-3.3
				c0.3-0.2,0.5,0.1,0.8,0c-0.3-0.7-0.8-1.5,0.1-1.7c-0.2-0.3-0.5,0-0.8,0c-0.5,0.2,0.3,0.9,0.3,1.3c-1.1-0.4-1.6-2.1-1.7-3.5
				c0-0.7-1.2-0.4-0.6-0.9c0.2-0.7,0.5-0.1,0.9,0.2c0.3,0.2,0.4-0.3,0.6,0.3c0.1,0.2-0.1,0.3,0,0.6c-0.3,0.1-0.4-0.4-0.5-0.6
				c-0.3,1,0.8,1.5,0.8,2.5c1.4-0.2-0.7-1.9,0.7-2c-0.9-1.2-2.1-1.1-2.3-3c-1.1,0.1,0.2,1.2-0.7,1.4c-0.5-1.1-0.9-2.1-0.7-2.8
				c0.5,0.3,1.1,1.6,1.5,0.5c-0.3-0.4-0.9,0.2-1.1-0.7c1.4-0.3,0.1-1.9-0.6-2c-0.3,0.4-0.2,1,0.2,1.6c-1,0.1-0.7-1.1-1-1.8
				c1.1,0.2,0.7-0.8,0.9-1.5c-1,0.1-0.4,1.2-1.2,0.8c-0.1-0.7,0.7-1,0.3-1.8c-0.4-0.6-0.2,0.5-0.2,0.7c-1.5-2.1-2.9-5.5-4.4-8.6
				c-0.1-0.3,0-1.6-1-1.6c-0.2-1.5-1.5-4.1-2.1-5.1c0.9,0,1.2,1.4,1.7,2.4c0.7,1.4,1.2,2.8,1.9,3.7c0.7-0.4,0.2-0.9,1.2-0.8
				c-0.6-0.8-0.2-1.4-0.8-1.7c0,0.4,0,0.6,0.1,1.4c-1.4,0-0.5-1.5-1.1-2.4c-0.6,0.1,0.6,1-0.3,1c-0.6-1.4-1.3-2.9-2-4.5
				c-0.5-1-1-2-1.5-3.1c-0.5-1.1-1.1-2.3-1.6-3.4c-1.1-2.3-2.3-4.5-3.5-6.6c-1.2-2.1-2.3-4.2-3.4-6.1c-0.3-0.5-0.4-1.3-0.7-1.8
				c-0.4-0.7-0.8-0.9-1.2-1.6c-0.6-1.1-0.8-3.6-1.7-3.2c0.2-0.8-0.6-1.6-0.6-2.4c-0.3-0.3-0.4,0.3-0.2,0.6c-1.8-1.8-3.4-4.6-5-7.3
				c-1.6-2.7-3.2-5.4-4.5-6.5c-0.3-0.6,0-0.3,0-0.8c-0.7-0.5-1.4-1.2-2.3-2.7c0-1.1,0.7,0.5,0.8-0.5c-0.6-1-1.4-0.6-2-2.5
				c0-1.9,0.9,1.7,1,0.2c0.6,0.7,0.7,1.8,1.4,2.5c0.2,0.2,0.2-0.1,0.4,0.2c0.1-0.8,0-1.6-0.4-2.2c0.6,0.5,0.8-1.1,0.9-1.6
				c-0.3-2.1-1.2-1.8-1.7-3.4c-0.1-1.5,0.7,0.7,0.9,0.9c0.2,0.3,0.1-0.6,0.2-0.5c0.6,0.7,1.5,2.1,2.4,3.2c0.3,1.3,0.1,3.3-0.4,2.8
				c-0.2,0.6,0.6,2.7,0.8,2c0.6,1.6-0.5,0.6-0.5,1.3c0.4,0.7,0.7,0.7,0.7-0.2c0.7,0.8,0.3,1.8,1.1,2.6c-0.5,1-1.2-2.4-1.7-1.3
				c-0.7-1-1.4-4-2.1-3.7c-0.3,1.3,1.5,2.4,0.7,2.8c0.8,0.2,1.3,2,2,1.8c0.4,0.7,0.8,1.4,0.7,2.3c0.9,0.1,2.5,3.3,3.7,5.9
				c0.8,0.3,2,1.6,2.4,3c0.6,0.4,1.2,0.7,2,1.8c-0.2,0.6-0.4,0.2-0.6,0.9c0.4,0.8,0.7,0.1,1.1,0.3c0.7,1,1.4,2.7,2,2.8
				c0-0.6-0.2-1.2-0.5-1.8c0.6,0.1,1.3,1.8,1.9,1.8c0.8,1.6,0.6,2.9,1.3,4.3c0.3,0.4,0.1-0.4,0.4-0.7c0.8,1.4,0.6,2.4,1.5,3.8
				c0.3,0.2,0.6-0.1,0.9,0.6c0.3-0.2,0.2-0.6-0.1-1.1c0.9,0.7,1.2,1.9,1.3,2.9c0.5,0.7,0-0.7,0.7-0.2c0.5,1.3-0.9,1.7,0.4,3.3
				c0.1-0.4-0.2-1,0.2-1.2c0.3,1.5,1.1,0.9,1.3,1.9c0-0.1-0.7,0-0.6,0.5c0.1,0.4,0.9,0.6,0.6,0c0.5-0.6,0.8,2,1.3,1.5
				c0.3-0.9-1.9-3.1-0.7-3.5c-0.3-0.4-0.6,0.1-0.9,0.3C98.2,86.2,97.8,85.6,97.5,85z M76.7,47.9c0,1.3,0,2.6,0.7,3.7l0.2-2.3
				L76.7,47.9z M76.6,53.4l0.6,0.9c-0.1-1.5,0-3-1.1-4.2C75.7,51.4,77,52.1,76.6,53.4z M91,77.5c-0.5-1.1,0.6-1.7-0.6-3
				c-0.6,0.4,0,1.2-0.1,1.7C89.9,76.4,90.9,78.1,91,77.5z M44.9,143.2c0.1,0.7-0.3,1.6,0.7,1.8c0.5-0.7-0.4-0.7-0.4-1.2
				c0.6,0.2,1.1,0.4,1.3-0.1C45.9,143.5,45.4,143.4,44.9,143.2z M48.8,131.7L49,131c-0.8,0-0.8-0.5-1.3-0.6
				C47.4,131.2,48.3,131.3,48.8,131.7z M46.6,131.6c-0.5-0.7-1-0.6-1.3-1.7C45.1,130.8,45.8,132.6,46.6,131.6z M46.4,136.4
				c-0.7-0.2-1-1.4-1.5-0.2c0.9,0,0.6,0.7,0.9,1.1C46,136.8,46.3,136.9,46.4,136.4z M47.9,136.6c0.3,0.2,0.3,0.5,0.5,0.7
				c0.2-0.3,0.5-0.4,0.5-0.9C48.4,136.1,48.1,136.2,47.9,136.6z M45.7,134.6c-0.3-0.2-0.3-0.5-0.8-0.5c-0.1,0.4-0.3,0.8-0.5,0.9
				C45,135.2,45.6,135.4,45.7,134.6z M50.1,130.8c-0.8,0.6-0.2,1.6-0.8,2.7c-0.3,0-0.5,0.3-0.8,0.3c-0.3-0.1-0.1-0.5-0.3-0.6
				c-0.4,0.6-1.2,0.3-1.4,1.2c-0.1,0.5,0.3,0.8,0.4,1.2c1.2,0.3,2.1,0,2.6-1.1c-0.4-0.3-0.4,0.2-0.6,0.4c-0.3,0.2-1.2,0.5-1.2-0.1
				c0.4-0.6,0.8-0.9,1.7-0.6C50,132.9,50.2,131.7,50.1,130.8z M54.6,131.5c-0.2,0.7-0.3,1.3,0,1.6c-0.2-1,0.2-0.7,0.7-1.4
				L54.6,131.5z M58.8,127c-0.3,0.2-1.2,1.8-0.2,1.8C59.1,128.8,59.4,127.1,58.8,127z M57,123.8c-0.2,1.3-1.5,1.9-1.1,3.2
				c1.2,0.6,1.3-0.8,0.9-1.4C56.9,124.6,57.5,124.5,57,123.8z M57.9,120.3c-1,0.6,0.2,2.1-0.7,2.8C58.5,122.9,58,121.2,57.9,120.3z
				 M60.7,120c-0.3,1.1-1.7,2.1-0.9,3.3C59.9,121.9,61.1,120.9,60.7,120z M48,126.7c-0.1-0.1-0.3-0.1-0.2-0.3
				c-0.6-0.2-0.9,0.1-1,0.8C47.4,127.4,47.8,127.4,48,126.7z M52.2,127.6c-0.9-0.4-0.7,1.3-1,1.9c-0.6-0.6-0.9-0.2-1.2,0.7
				C51.4,130.8,52.1,128.4,52.2,127.6z M50.6,127.1c0,0.9-0.6,0.7-1,0.8c-0.1,0.5-0.1,0.9,0.2,1.1c0.4-1,0.7-1,1.1-0.2
				C51.1,128.2,50.8,126.8,50.6,127.1z M47.2,125.9c0.5-0.6,1.6,0,1.6-1.4c-0.4-0.4-0.6,0.3-1.1,0.2c-0.1,0-0.1-0.7-0.6-0.7
				c-0.2,0-0.6-0.1-0.7,0.9C47.8,125,46.8,125.4,47.2,125.9z M50.1,120.6c1.5,0.1-0.9,2,0.8,1.6c-0.4,0.8,0,1.1,0.1,1.6
				c-0.7,0.7-1.4,1.4-1.9,2.4l0.9,0.3c0.2-1.1,0.6-1.7,1.3-1c0.3-1.3,0.1-2.4,0.2-3.7C50.4,121.8,51.4,119.2,50.1,120.6z M47.6,117
				c-0.1,1,0.1,1.9,0.3,2.7c-0.6,0.8-1.1,2-1.4,3.3c0.5,0.2,0.9,0.2,1.2,0.1c-0.2-0.5,0.3-1.5,0-1.9c-0.6,0.5,0,0.9-0.6,1.2
				c-0.4-0.8,0.5-1.6,1-1.9c0,1.4,0.8,0.6,1.1,1.6c-0.1,0.5-0.4,0.5-0.5,0.9c0.6,0.2,0.7-0.6,1.4-0.4c0.1,0.1,0,1.3,0.3,0.6
				c0-0.9-1.1-1.1-0.6-2.3c-1.2,0.4-1-0.7-1-1.1c-0.1,0.5-0.9-0.4-0.8-0.7c1.1,0.4,1-1.6,1.9-1.6l-1.2-0.3c-0.2,0.7-0.3,1.5-0.9,1.4
				C48,118,48.7,116.9,47.6,117z M52.1,116.9c0-0.8,0.5-0.6,0.6-1.2C51.7,115,51.5,116.8,52.1,116.9z M50.2,114.8
				c-0.4,1,0.5,0.5,0.5,0.9c-0.2,0.7-0.5,1.4,0.1,1.6c0.5-0.9,0-1.7,0.5-2C50.6,115.3,50.8,114.8,50.2,114.8z M49.4,113
				c-0.1,0.5-1,1.1-0.4,1.5c0.1-0.2,0.3-0.2,0.5-0.1C49.7,113.7,49.9,113.1,49.4,113z M50.3,111.3c-0.1-0.9,0.8,0,0.7-0.9
				c0-0.4-0.7-0.4-0.2-1.1c-0.7-0.5-0.4,0.8-1.1,0.3c0.1-0.8,1.2-1,0.4-1.5c-0.1,0.7-0.7,0.6-0.9,1.4c0.1,1,0.7,1.8,0.4,3
				c0.3,0.1,0.7,0.1,0.6,0.4c0,1.3,0.4-0.6,0-0.8c0.1-0.3,1.1-0.5,0.5-0.9C50.7,111.5,50.3,111.7,50.3,111.3z M52.7,108.8
				c-0.3,0.2-0.5,0.8-0.6,1.4c0.7,0.5,0.4-0.8,1.1-0.3c0,0.8-0.5,0.8-0.6,1.4c0.4,0.5,0.3,0.1,0.9,0.2c0-0.8,0.5-2-0.1-2.4
				C53,110.4,53,108.9,52.7,108.8z M51.6,107.4c0.6-0.1,2.3,0.1,1.7-0.9c-0.2,0.4-0.5,0.5-1.1,0.3c0.1-0.5,0.6-1.2-0.2-1.1
				c-0.1,0.9-0.5,1.4-0.8,1.9c-0.1,0.3-0.5,1.8,0,1.1L51.6,107.4z M54.4,109c0.3-0.3,1.2-2.2,0.7-1.7C54.7,107.2,54,108.5,54.4,109z
				 M55.9,107.2c-0.5,0.7,0.7,0.4,0.2,1.1c-0.1,0.4-0.6,0-0.7,0.6l0.9,0.2c0.1-1,0.6-1.1,0.8-1.9C56.4,107,56.3,108,55.9,107.2z
				 M54.1,104.6c-0.7-0.5-1.4,1.9-0.9,1.4C53.2,104.9,54.1,105.7,54.1,104.6z M56.4,104.3c-0.4,0.6-1,0.7-1.2,1.7
				c0.4,0.2,0.8-0.1,1.1-0.5C56.5,105.1,56.6,104.6,56.4,104.3z M56.4,101.5c-0.3,0.5-1.4,1.5-0.6,2.1
				C56.1,103,57.1,101.9,56.4,101.5z M54.5,99.3c-0.1,0.7-1.3,0.7-0.9,1.4C54.1,100.5,55.3,100.1,54.5,99.3z M52.5,98.3
				c-0.6,0.5-0.7,2.3-1.1,3.4c0.8,0.6,0.5-1.6,1.3-1.1c-0.1,0.4,0.5,0.5,0.5-0.1c-0.3-0.3-1.2-0.2-1-0.8
				C52.7,99.7,52.9,98.9,52.5,98.3z M55.6,87.9c0.2-0.7,0.5-0.4,0.6-1.4C55.7,85.3,55.3,87.6,55.6,87.9z M57.3,100.1
				c0-0.2,0.1-0.5-0.1-0.6c-0.5,0.8,0.4,1.1,0.8,1.5l0.2-0.9C57.7,99.6,57.7,100.3,57.3,100.1z M53.4,96.8c-0.5-0.4-0.8,0-1.1,0.3
				c0.3,0.3,0.3,0.7,0.8,0.8L53.4,96.8z M58.3,96.2c-0.6,1-0.1,1.7-0.2,2.6c-0.6-0.4-0.4-1-0.6-1.5c-0.7,0.3,0.1,1.6,0.4,2.2
				c0.6-1,0.3-2,1.3-2.1C58.6,97,58.8,96.6,58.3,96.2z M55,94.4c0.5-2.9-0.9,0.6-0.1,1.2C55.1,95.1,55,94.9,55,94.4z M56.2,91.1
				l-1-1c-0.3-0.3,0.4-2.1-0.1-1.5c-0.3,1.1-0.6,2.1-1,2.6c0.9,1.4,0.7-1.2,1.5,0.1c-0.2,0.5,0.1,0.8-0.1,1.3
				c-0.5-0.6-1.1-0.4-1.5,0.3c-0.4,0.6-0.5,1.5,0.1,2.2c0.3-1.1,0.7-2,0.9-2.3c1.1,0.4,0.3,1.4,1,1.9C56.3,93.4,55.6,92.4,56.2,91.1
				z M59.8,90.6c0,0.8-0.5,0-0.6,0.4c0.1,0.8,0.5,0.3,0.5,0.9c-0.3-0.3,0,0.3-0.2,0.7c-0.6-0.6-0.5-1.1-1-1.1
				c-0.1,0.4-0.3,0.8-0.1,1.2c0-0.1,0.2-0.1,0.2,0.2c0,1.5-0.9,0.4-1.2,0.8c0.8,0.7,1,1.5,1.9,2.2c0-1.1,0.3-1,0.7-1.7
				c-0.2-0.3-0.4-0.6-0.3-0.9c0.2-0.7,0.8,0.1,0.8-1C60.3,91.8,60.5,91.2,59.8,90.6z M58.7,89.4c-0.7,0.3-0.8-0.4-0.5,1
				c-0.6-1.1-0.7,0-1.3-0.9c-0.3,0.3,0.4,1.7,0.4,1.2c-0.2-0.2-0.1-0.7,0.1-0.5l0.4,0.4c0,0.6-0.7,1.4-0.3,1.9c0.5,0,0.4-1,0.5-1.7
				c0.9,0.2,0.7-1,1.2-1.7C58.8,88.3,58.9,89.3,58.7,89.4z M58,84.5c-0.2,0.3-0.4,0.9-0.7,0.8l0.5-1.9c-0.1-0.5-0.4-1.1-0.8-1.7
				c-0.7,1.3,0,2.6-0.3,3.8c0.3,0.7,0.5,0,0.7,0.2c0,0,0.1,0.9,0.2,1c-0.1-0.1,0.3-0.3,0.3-0.3c0.2,0.1,0.3,1.1,0.4,0.3
				C57.3,86.1,58.4,85.4,58,84.5z M60,84.6c-0.4-0.1-0.6,1.4-0.8,2.1C60.3,88.2,60.2,86,60,84.6z M59.5,82.4c0-0.1,0.1-0.1,0.2-0.2
				c0.2-0.1,0.4,0.4,0.5-0.1c0.1-0.2,0.3-0.8,0-1.6c-0.2,0.3-0.2,1.8-0.6,1.2c0.5-0.9-0.2-1.5-0.2-2c0.3,0.1,0.4-0.5,0.6-1.2
				c-0.7-1.3-0.9,1.3-1.5,1.6c-0.2-0.3-0.1-0.6-0.2-0.9c-0.4,0.6-0.3,0.3-0.4,1.3c0.5,1.5,0.4-1.1,0.9,0.4l-0.4,1.3
				c0.6,1.5,0.4-1,0.9-0.4C59.5,82.1,59.5,82.3,59.5,82.4C59.4,82.6,59.4,82.6,59.5,82.4z M61.2,79.8c-0.5,0.9,0.1,1.2,0,1.7
				c-0.2,1.2-1,1.3-1,2.5c0.1-0.3,0.5,0.6,0.7,1c-0.2-2,0.4-2.1,0.8-3.7L61.2,79.8z M63.4,74.3c-0.2-0.6-0.3-0.9-0.5-1.1
				c-0.2,0.5,0,1.4,0.1,2.2C63.3,75.7,63.5,75.1,63.4,74.3z M63.1,67.8c-0.1,0.7-0.6,1-0.4,1.9C63,69.9,63.4,68.9,63.1,67.8z
				 M64.3,58.9C64,58.7,64.2,59.3,64,60C64.3,62,64.8,60.6,64.3,58.9z M65.3,63.5c-0.2,0.2-1-0.1-0.9,1.9
				C64.7,65.1,65.4,64.7,65.3,63.5z M68,66.6c-0.2,0.1-0.3-1.7-0.5-0.4l0.3,1.7C67.9,67.6,68.1,67.4,68,66.6z M68.4,63.5
				c-0.1-0.3-0.2-0.6-0.3-0.9c0-0.1,0,0-0.1,0c0,0,0,0.1,0,0.1c0,0.1,0,0.2-0.1,0.3c-0.1,0.6-0.1,1.8,0.2,3.4c0,0,0.2,0.3,0.3,0.1
				c0-0.1,0-0.4,0-0.9c0,0.1-0.1,0.1-0.2-0.4c0.1,0,0.1-0.2,0.1-0.3c0,0,0.1-0.1,0.1-0.2C68.5,64.3,68.4,63.8,68.4,63.5z M70.5,68.5
				c-0.2-2.6-0.5-0.9-0.8-1.2c-0.3-0.3-1.1-3-0.9-0.9C69.3,67.1,70.2,69.1,70.5,68.5z M71.1,64.1c-0.2-1-0.9-2.3-0.8-0.8
				C70.5,63.4,71.2,65.3,71.1,64.1z M67.5,77.8c-0.2,0.5-0.5-0.8-0.7,0.4C67.4,80.7,67.5,79.2,67.5,77.8z M68.3,76.5
				c-0.1,1.2-0.7-1.2-0.5,0.6c0.3-0.1,0.4,0.8,0.4,2.1C68.3,78.6,68.4,78,68.3,76.5z M69.8,79.8c-0.3-1.2-0.6-3.7-0.7-2.9
				C69.3,79.2,69.5,79.2,69.8,79.8z M69.5,76.5c-0.4,0.1-0.3-4.1-0.7-3.1C69,75.5,69.5,77.9,69.5,76.5z M71.8,76.8
				c0.1,0.3,0.2,1,0.2,1.8c0.2,0.3,0.3,0.3,0.4,0.1C72.3,77.4,71.7,75.7,71.8,76.8z M72.9,84.9c-0.1-0.8-0.1-1.9-0.2-2.2
				c0.1,1.1-0.3-0.5-0.3-0.9c0-0.8,0.2-0.1,0.1-1.3c-0.4-0.8-0.9-0.4-1.4-1.6c-0.3-0.6-0.6-2.7-0.8-3.2c0.3,0.4,0.7-0.4,0.4-1.8
				c0,1.5-0.8,0.3-0.7,1.9c0-0.2,0.4,0.9,0.3,1.5c-0.2-0.6-0.2,1.1-0.5-0.7c0.1,0.1,0.3,0.5,0.2-0.1c-0.1-0.5-0.2-0.8-0.4-1.2
				c-0.1-0.2-0.1-0.4-0.2-0.6c0-0.1-0.1-0.3-0.1-0.5c0-1-0.1-1.6-0.3-1.6c0,0,0,0,0,0c0.3,1.7-0.1,1.3,0.3,3.3
				c0.1-0.2,0.1-0.5,0.1-0.7c0-0.3,0.1-0.3,0.2,0.7c0.1,1.1,0.2,2.1,0.3,3.2c0.1,0.9,0.2,1.7,0.3,2.6l0.1-0.2l0.1-0.2
				c0,0,0-0.1,0-0.1l0.1,0.1c0-0.3-0.1-0.6-0.1-0.9c-0.1-0.3-0.1-0.6-0.2-0.7c-0.1-0.2-0.1-0.4-0.1-0.9c0.1,0,0.4,0.5,0.4,1.1
				c0-0.1-0.2,0-0.1,0.3c0.3,1.1,0.5,0.8,0.8,1.2c0.2,0.3,0.6,2.2,0.5,0.2c-0.4-0.6-0.7-2.7-1.1-3.7c0.1-1.4,0.7,2.1,0.9,2.9
				c0.1,0,0.6-0.3,0.8,1.2c0.1,1.6-0.6-1.6-0.3,1C72.3,82.6,72.5,84.1,72.9,84.9z M74.6,76.3c0-1.5-0.4-4.7-0.8-3.8
				c0.1,0.3,0.2,0.9,0.2,1.4c-0.1,0.4-0.5-0.3-0.8-0.8c0.1-1.4-0.2-1.5-0.3-2.4c-0.5-1.1-0.5,0-0.9-0.9c0.2,1.8,0.1,1.2,0.1,2.7
				C72.9,73.7,73.8,75,74.6,76.3z M77.9,79.8c-0.4-0.8-0.8-1.2-1.1-1.3c0-1,0.4,0.1,0.5-0.7C77.2,77.6,77,77.4,77,77l-0.2-0.4
				c-0.1,0.6-0.1,1.7-0.3,1.5c0-2.2-0.6-1.1-0.9-1.5c0-0.5,0-0.9,0.1-1.4c-0.3,0.3-0.6-0.6-0.8-1.4c-0.3-0.8-0.5-1.4-0.5-0.4
				c0.5,0.4,0.8,2.5,0.5,3.3c0.4,0.7,0.8,1,1.1,0.3c0.3,0.3,0.7,1.6,1,2.5C77.3,80.6,77.6,81,77.9,79.8z M77.8,94.2
				c-0.3,0.2-0.2-0.9-0.5,0.1c0,0.7,0.1,0.2,0.2,0.9L77.8,94.2z M79.9,88.5c0-0.6-0.2-1-0.5-1.4C79,88,79.8,89,79.9,88.5z
				 M80.8,85.6c-0.7-1.2,0.4-1,0.2-2.1c-0.5-1.1-0.9-1.4-1.3-1.9c-0.4,0,0,1.5-0.4,1.3c-0.1-1.2-0.2-2.5-0.6-3.5
				c-0.3,0.1-0.5,0.7-0.7,1.8c0.4,0.7,0.8,1.7,0.6,0c0.3,0.9,0.4,2.1,0.7,2.9c0.3-0.6,0.5-0.1,0.7,0.5
				C80.4,85.2,80.5,85.8,80.8,85.6z M81.4,84.2c0.1,0.3,0,0.5-0.2,0.7c0.3,0.5-0.1,1.5,0.2,2C81.8,86.8,82,83.7,81.4,84.2z
				 M124.3,198.1c0.2,0.4,0.5,1,0.7,0.8c-0.6-1.4,1.2-0.4,0.2-1.7C124.9,197.1,124.9,197.6,124.3,198.1z M120.4,176.9
				c0.6,1.4,0.7,2.3,1.6,2.9C122,179.3,121,177.3,120.4,176.9z M109.4,167.6c0.5,0.7,0.2,1,0.4,1.5
				C110.5,168.9,110.1,167.4,109.4,167.6z M107.6,164.1c0.8,0.4,0.2,1.5,1,1.8C108.8,165.6,108.4,163.6,107.6,164.1z M98,141.2
				c0.4,0.1,0.9-0.1,1.3,0l-0.4-0.9C98.3,140.5,97.8,140.7,98,141.2z M98.1,128.4c0.5,0.9-0.8,0.9,0,1.9c0.7-0.2,0.2-1.1,1-0.7
				C98.9,129,98.5,128.5,98.1,128.4z M90.9,127c0.6,0.6-0.1,0.7,0,1.1c0.7-0.2,0.6-0.8,0.8-1.2c0.4-0.2,0.6,0.5,1.1,0.1
				C92.3,125.6,92,126.8,90.9,127z M85.8,113.5c0.3,0.7,0.6,1.1,1.1,1.2C86.3,113.9,86.8,113.1,85.8,113.5z M87.4,105.6l0.5,1.1
				C88.9,106.5,88.2,104.9,87.4,105.6z M83.3,105.3c0.3,0.6,0.5,1.4,1.1,1.2C84,106,83.9,104.7,83.3,105.3z M83,103
				c0.1,0.5,0.9,0.7,1.2,0.2C83.9,103.3,84,101.9,83,103z M84.1,97c-0.4,0.7-0.4,1.4-0.1,1.9C85,98.1,84.3,97.6,84.1,97z M79.7,99
				c-0.2,1.1,0.4,0.7,0.1,1.8c0.4-0.6,0.1-0.5,0.1-0.8C80.1,99.5,80.4,98.1,79.7,99z M82.1,88.4c0.5,0.6,1.1,0.4,1.7,0.1
				c-0.3-0.5-0.4-2.3-1-1.9C83,87.2,82.3,88.4,82.1,88.4z M85.2,92.3c0.7-0.8-0.4-1.4-0.5-2.1c-0.2-0.2-0.4,0-0.6-0.6
				c0.4-0.6,0.4-1,0.1-1.4c-0.5,0.7,0,1.1-0.4,1.8c-0.3-1-0.7-0.4-1-0.3C83.4,90.4,84.8,90.8,85.2,92.3z M90.2,103.1
				c0-0.2,0.1-0.4,0.3-0.4c-0.5-0.6-0.4-0.4-0.5-1.1C89.2,101.6,90.1,103.3,90.2,103.1z M92.7,107.3c-0.2-0.6-0.4-0.9-0.9-0.7
				c0.1,0.3-0.1,0.6,0.2,1L92.7,107.3z M93.2,109c0.5-0.6,1.2-1,0.7-2c-0.9,0.1-0.3,0.5-0.7,0.9c0,0-0.5-0.2-0.4,0.2L93.2,109z
				 M101.5,124.2c-0.2-0.7-0.6-1.2-1.1-1.2c0.4,0.7-0.2,0.9,0.2,1.6L101.5,124.2z M146.4,223c0.1,0.5,0,0.9-0.1,1.2
				c-0.1,0.2-0.1,0.3-0.2,0.5c-0.1,0-0.2-0.1-0.3-0.1c0.3,0.6,0.3,2,0.7,1.6c0-0.3,0.2-1.2,0.2-1.9
				C146.7,223.4,146.7,222.8,146.4,223z M149.2,216.1c-0.1,0.1-0.2-0.1-0.2-0.7c-0.5,0.6-0.3,2-0.5,3
				C148.7,217.6,149.3,217.3,149.2,216.1z M205.8,90.7c-0.2,0.6-1.4,0.4-1,1.2C205.1,91.8,206.2,91.4,205.8,90.7z M209.2,88.2
				c-0.2,0.4-0.5,0.4-0.9,0.1c-0.5,0.6-0.1,1-0.7,1.7c0.3,0.3,1.5-0.5,1.6-0.8c0-0.1-0.5-0.3-0.3-0.5
				C209.3,88.9,210,88.5,209.2,88.2z M210.2,83.8c-0.5-0.4-1.5,0.7-1.2,1.1C209.4,84.5,209.8,84.2,210.2,83.8z M249.4,19
				c0.7-0.7-0.4-1.5-0.8-0.6L249.4,19z M245.9,25c0.6,0.4,1-0.2,1.5-0.9C246.7,23.5,246.3,24.3,245.9,25z M229.1,17.1
				c0.5-0.1,1.2,0.9,1.6,0.2c-0.1-0.3-0.3-0.7-0.8-0.9C229.7,16.9,229.4,16.7,229.1,17.1z M224.9,22.5c0.3,0.3,0.6,0,0.9,0
				c0.4,0.5,0.7,1.1,1.3,0.2c-0.3-0.2-0.5-0.2-0.7-0.2c0.4-0.4,0.3-0.8-0.2-1.1C225.8,22.3,225.3,22.2,224.9,22.5z M242.9,35.7
				c0.2-0.7,1.7-1.7,0.9-2.2c-0.7-0.2,0.2,0.6-0.4,1c-0.3-0.1-0.5-0.3-0.7,0.2C243.7,34.8,242.4,35.4,242.9,35.7z M225.2,25.5
				c0.3-0.6,0.5-1.7-0.3-1.8c-0.5,0.9,0.4,2.1-0.9,2.6C224.5,26.9,225,25.9,225.2,25.5z M224.4,28.8c-0.2-0.6,0.3-1.4-0.5-1.9
				C223.1,27.7,223.5,29.5,224.4,28.8z M231.9,52.3c-0.4,0.5-1-0.1-1.3,0.7C231.1,53.5,232.2,52.8,231.9,52.3z M216.1,65.1l-0.8-0.5
				l-0.4,0.7C215.4,65.7,215.9,65.7,216.1,65.1z M200.5,93.6c0.4-0.6,1-2.3,0.6-2C201.1,92.1,200,93.9,200.5,93.6z M197.4,95.6
				c0.4-0.5,1.1,0,1.4-1C198.3,94.4,197.1,95,197.4,95.6z M199.2,99.3c-0.8-0.6-0.9,1.2-0.9,1.6C198.7,100.4,199.3,100,199.2,99.3z
				 M192.4,106.4c0.2-0.7,0.7-0.2,1-0.3c0.6-0.9,0.9-1.7,0.7-2.3c0.3,0.1,0.5-0.4,0.8-0.4c0-1.6,1.3-3.2,2.2-4.4
				c-0.5,0,0.6-1.4-0.2-0.7c-0.3,0.4,0,0.6-0.3,1c-0.6-0.2-1.2,0.5-1.6,0.9c-0.3,0.4-0.1,0.7-0.4,1.2c-0.3,0.5-1.1,1-1.4,1.6
				c-0.2,0.3,0.1,0.5-0.2,0.8C192.6,104.4,191.5,105.9,192.4,106.4z M178.5,134.4c0.4-0.5,1.1-0.8,1.5-1.3c0.4-0.6,0-0.9,0.2-1.4
				c0.1-0.2,0.3-0.1,0.3-0.1c0.1-0.2-0.1-0.3-0.1-0.3c0.5-1.2,0.7-1.9,0.2-2.5c-0.7,0.7-0.8,2.3-1.4,3.7
				C178.9,133.1,177.7,133.6,178.5,134.4z M171.4,170.7c0.3-0.5,0.9-0.7,0.7-1.4C171.4,168.7,170.8,170.6,171.4,170.7z M171.9,165.8
				c-0.9,0.7,0.5,1.4,0.9,1C172,166.6,172.9,165.9,171.9,165.8z M170.2,166.4c0.3-0.5,1-0.1,1.2-0.8
				C171.5,164.1,169.4,165.5,170.2,166.4z M179.1,135.3c-0.6-0.4-0.9,0.2-1.5-0.2c0-0.2,0.2-0.5,0-0.6
				C177,135.8,178.3,136.7,179.1,135.3z M162.4,143.3c0.6-0.3,0.8-1.4,0.7-2C162.7,142.3,161.9,142.5,162.4,143.3z M159.7,149.8
				c0-1.1,0.7-0.7,1.2-1.4c-0.5-0.3-0.4-0.8-1.1-0.5C160,148.4,158.8,149.5,159.7,149.8z M153.9,163.4c0.4-0.2,0.9-1,0.3-1.3
				C153.8,162.3,153.3,163.1,153.9,163.4z M165.9,167.8c0.8-0.6,0.4-1.1,0.7-2c0.8,0.6,0.6-0.8,0.7-0.8c0.3-0.5,0.9-0.3,1.2-0.8
				c-1-0.3,0.2-1.5-0.4-1.9c0.2-0.4,0.3-1.3,0.9-0.7c-0.2,0.8-1,0.7-0.3,1.3c0.4-0.3,0.7-0.6,0.8-1.1c0.1-0.5-0.6-2.7,0.6-2.3
				c-0.1,0.1,0,0.3,0.2,0.1c-0.5-0.6,1.6-0.9,0.6-1.7c-0.4,0-0.5,0.9-0.9,0.7c0.5-1.1,1.5-1.7,1-2.6c0.1-0.2,0.8-0.1,0.9-0.1
				c0.2-0.2,0.6-1.5,0.8-1.6c0,0,0.4,0.2,0.4,0.2c0.3-0.4,0-1.1,0.5-1.5c0.3,0.1,0.6,0.3,0.8,0.1c-0.2-0.7-0.7-0.3-1.2-0.3
				c0.3-1.1-0.7-0.7-0.4-1.9c0.2-0.5,0.7,0,0.9-0.7c-0.3-0.3-0.1-0.8,0-1.1c0.4-1.5,1.2-3.2,2.3-4.6c-0.2-0.4-0.5-0.7-0.2-1.2
				c1.1-2.6,1.5-3.8,2.8-6.4c-1.4-1-1.3,1.5-1.7,2.3c-0.7,1.4-1.7,2.5-2.4,3.7c0.4,0.2,0.5,0.5,0.4,0.8c-1.4,1.8-1.3,3.1-2,5.1
				c-0.5-0.1-0.4-1-0.8-0.1c0.3,0.5,0,1.1,0.3,1.6c-1,1.6-1.3,3.5-2.3,4c0,1.1-0.6,2.1-1.3,2.5c1.2,0.2-0.1,1.4,0.1,2
				c-0.4-0.3-0.1-0.8-0.5-1.1c0,1-0.6,1.1-1,2.1c0.7,0.8,0.6-1,1.1-0.6c0.7,0.5-0.6,1.1-0.8,2.2c0.3,0.2,0.5,0.3,0.2,0.7
				c-0.5-0.8-0.2,0-0.5,0.6c-0.6,0.9-1,1.7-0.6,2.3c-0.4-0.2-0.6-0.4-0.8-0.6c-0.6,0.8,0.1,1,0.1,1.5c-0.9,1.4-1.5,2.8-2.2,2.9
				c-0.2-0.2-0.3-0.6-0.7-0.3c0.1,0.5,0.6,0.8,0.7,1.2c-0.3,0.6-1.4,0.7-0.7,1.4c0.8-0.9,0.7-1.9,1.4-1.9c0,0.5-0.2,1.2-0.4,1.9
				c-0.2,1.2-0.3,0.3-0.8,1.1c0.4,1,1.2,0,1.8-1.3C165.8,169.3,166.2,167.8,165.9,167.8z M161.4,180.4c-0.5-0.8-1.1,0.2-1,0.9
				C160.9,182.2,161.5,181.1,161.4,180.4z M160.8,194c0.4-0.9,0.8-2.3,1.3-2.4c-0.4-0.2-1.5-0.4-1.3,0.6c0.1-0.2,0.2-0.3,0.3-0.1
				C160.9,192.8,160.7,193.4,160.8,194z M158.4,193.4c0.4,0,0.8-1.3,0.6-2.1C158.6,191.4,158.3,192.6,158.4,193.4z M157.4,192.8
				c0.5,1.2,0.7,0,0.9-0.9C157.9,190.7,157.7,192.4,157.4,192.8z M149.5,176.6c0.5,0.4,0-1.1,0-1.7
				C149.2,175.2,149.2,175.7,149.5,176.6z M148.6,175c-0.4-1-0.5-0.7-0.6-0.4C148.3,175.6,148.5,175.4,148.6,175z M148.6,178.5
				c0.2-0.3,0.3-0.5,0-1.3C148.3,176.9,148.1,177.4,148.6,178.5z M152.8,198.3c0.6-0.4-0.1-1.5,0.4-2c0.3-0.1,1.7-1,1.2-2.8
				c-0.5,0.6-0.7,2.5-1.1,1.9c0.1,0.1,0.3-1.1,0-0.6C153.4,196,152.2,196.6,152.8,198.3z M147.8,180.1c0.1-0.6,0.3,0.2,0.4-0.2
				c-0.2-0.6-0.3-1.1-0.5-1.3C147.6,178.8,147.7,179.5,147.8,180.1z M149.6,207.7c0.4-2.4,1.1-1,1.1-3.1c-0.4,0.4-0.7-1.4-1.1-0.5
				c0,1,0,1.5,0.3,1.9C149.6,206.4,149.5,207,149.6,207.7z M148.1,206.8c0.3-0.5,0.3-1.5,0.1-2.7
				C147.9,204.8,147.8,206.4,148.1,206.8z M141.3,204.8c0.1,0.3,0.1,0.6,0.1,1.1c0.4,1.1,1,0.9,1,1.7c-0.1,0.9-0.6-1-0.6,0.3
				c0.5,1.7,0.5,0.8,1,1.3c-0.2-1.7,0.1-1.7-0.1-3C142.2,206,141.7,205.2,141.3,204.8z M132.7,192.9c0.3,0.4,0.2,0.9,0.4,1.3
				c0.2-1.1,0.4-0.4,0.6-1.3C133.4,192.2,133.1,192.7,132.7,192.9z M130.9,189.3c0.2,0.8,0.1,1.9,0.5,2.1c0.2-0.4,0.2-0.7,0.2-1.1
				c0.8,0,0.5,2.2,1,2c0.2-1.1-0.6-2.1-0.8-3.1c-0.2,0.4-0.4,1.1-0.6,0.8c0.2-0.5-0.4-1-0.3-1.5
				C129.8,187.6,130.6,188.1,130.9,189.3z M129.9,150.8c0.5,1,0.2,1.4,1,1.8c-0.1-0.3,0.2-0.2,0.4-0.2
				C130.6,151.7,131.4,150.5,129.9,150.8z M129.2,150.5c-0.2,0.1-0.1,0.5,0.2,0.5c0-0.6,0.7-0.9,0.4-1.5
				C129,149.5,129.6,150.2,129.2,150.5z M128.3,147c-0.2,0.5,0.4,1.5,1,1.2C128.6,147.8,129.2,147,128.3,147z M118.6,145.8
				c0.4,0.5,0.8,1.3,1.4,1.4C119.8,146,119.5,145.9,118.6,145.8z M125.7,141.4c0.3,0.9,0.2,1.2,1,1.2
				C127,142,126.2,141.3,125.7,141.4z M112.5,128c0.2,0.6,0.5,1.2,0.8,1.3c0.4-0.2,0.7-0.5,0.7-0.8C113.1,129.2,113,128.1,112.5,128
				z M112.3,126.3c-0.1,0.2-0.6,1.1,0.2,1c0.7-1,0.4,0.5,0.8,0.8C114.6,127.5,112.9,126.4,112.3,126.3z M111.5,114.8
				c-0.2,0.5,0.3,1.8,0.9,1.6C111.7,116,112.3,115,111.5,114.8z M107.3,105.8c0.3,0,0.6,0.1,0.8,0.5c0.7-0.2,0.8-0.7,0.8-1.2
				c-0.4,0.2-0.6,0-0.8-0.5C107.3,104.8,107.3,105.3,107.3,105.8z M107.4,103.2c-0.5,0.4-0.7,0.9-1,1.3
				C107,104.2,108.2,104.1,107.4,103.2z M103.1,105.2c0.7,0.7,1.1,2.6,2.2,2.5c0.1-0.6-0.3-0.2-0.5-0.6
				C104.2,106.3,104,104.7,103.1,105.2z M101,96.3c-0.6-0.5-1.1-1.4-1.7-1.2c0.6,0.8,0.1,1,0.6,1.8L101,96.3z M102.9,96.9
				c0.2,0.6,0.5,0.9,0.8,1.1c0.6,0,1.3-0.9,0.6-0.9C104.4,97.7,103.3,97,102.9,96.9z M101,91.3c0.6,0.8,1.1,3.4,1.9,2.7
				C102.3,93.2,101.7,90.6,101,91.3z M100.8,91.5c-0.4,0.4-0.1,1.1,0.4,2c0.2,0.4,0.5,0.9,0.7,1.3c0.2,0.4,0.5,0.9,0.5,1.1
				c0.4-0.2,0.5,0.7,1,0.4c-0.2-0.4-0.4-0.7-0.6-1c-0.3-0.4-0.5-0.7-0.7-1.1C101.7,93.5,101.3,92.8,100.8,91.5z M172.3,154
				c-0.5-0.4-0.5-1.1-0.2-1.8c0.2,0.2,0.3,0.5,0.1,0.9c0.2,0.1,0.2,0,0.3-0.1C172.8,153.2,172.4,153.7,172.3,154z M51.3,135.2
				c-0.7-0.4-0.1-1,0.2-1.6C52.1,134,51.5,134.7,51.3,135.2z M128.1,185.8c-0.6-0.2-1.9-2.3-2-3.6c0.7-0.8,0.2,0.4,0.4,0.8
				C127.2,183.3,127.7,185,128.1,185.8z M112.4,150.9c-0.6-0.6-0.9-1.6-1.5-3C111.6,148.6,112.4,149.9,112.4,150.9z M44.3,109.7
				c-1.2-0.7,0-2.4,0.4-3.4c0.3-0.7,0-2,1-1.9C44.7,106.2,44.5,108.4,44.3,109.7z M43.7,141.2c0.2-0.4-0.1-0.6,0.1-1.1
				c0.6-0.1,1.3-0.1,2,0.1C45.3,140.9,44.7,141.4,43.7,141.2z M42.3,114.5c-0.4-0.7,0.5-2.2,0.6-3.3
				C43.3,112.1,42.5,113.6,42.3,114.5z M50.1,88.6c-0.5,2-1.1,4.3-1.6,5.9c-0.1-1.9,0.4-3.5,1-5.1c0.6-1.6,1.3-3.3,1.7-5.7
				C51.8,83.3,50.5,87.1,50.1,88.6z M42.1,142.3l0.8-2.4C42.9,140.4,43.2,142.5,42.1,142.3z M40.6,149.4c-0.4-0.5-0.1-1,0.3-1.5
				C41.3,148.4,41,148.8,40.6,149.4z M41.4,145.3c-0.2-1.1,0.4-1.5,1-2.4c0.3,0.5,0.1,1.3-0.2,2.1C41.9,144.9,41.6,145.1,41.4,145.3
				z M53.3,123.4c0.5-1-0.2-1.1,0-1.9c1.6-0.2,0.3-1.7,0.8-2.2c0.2,0.2,0.3,0.4,0.6,0.4c-0.3,0.5-0.2,1.7-0.7,1.7
				C54.2,122,54.6,123.7,53.3,123.4z M197.6,117.3c-0.5,1.6-1.5,3-2.6,4.7c0.3-1.4,1-2.9,1.9-4.5
				C197.1,117.1,197.4,117.2,197.6,117.3z M143.7,176.5c0,0.1,0.1,0.2,0.1,0.2l0.1-0.2c0,0.5,0,1.1-0.1,1.4
				C143.9,177.9,143.8,177.6,143.7,176.5z M199.8,65.1c-0.3-0.2-0.1-1.3,0.2-1.7c0.2-0.3,0.9-1.1,1.3-0.7
				C200.5,63.4,200.6,63.9,199.8,65.1z M145.2,173.4c0.2,0.6,0.3-0.1,0.4-0.3c0.2-0.2,0.1-1.2,0.5,0.1c-0.2,0-0.3,0.6-0.4,1
				C145.6,174.6,145.4,174.7,145.2,173.4z M164.5,134.7c-1.1,0.4,0.7-1.9,0.4-2.4c0.3,0.1,0.4-0.3,0.6-0.6
				C166.3,132.5,164.3,134.2,164.5,134.7z M148.7,172c0.1-0.2,0.3-0.4,0.7,0.2C149.2,172.6,149.1,172.8,148.7,172z M145.6,177.9
				c-0.2-1.2,0.3-0.1,0.1-1.3c0.2,1,0.2-1.1,0.5,0.7C146,177.6,145.7,177.2,145.6,177.9z M144.3,180.6c0.2-0.7,0.3,0.8,0.5,0.8
				C144.8,181.5,144.4,183.2,144.3,180.6z M146,179.4c0.2-0.3,0.3-0.9,0.6,0.6C146.3,179.4,146.2,181,146,179.4z M146.8,179.3
				c-0.3-1.5-0.3-0.1-0.6-1.7c0.1-0.3,0.4,1,0.6,0.5C147,178.8,147,179.2,146.8,179.3z M203.1,106c0.5,0.8-0.6,1.9-1,2.7
				c-1.1,2.1-2,3.8-3.1,5.6c-0.5,0.9-0.4,2.6-1.6,2.3c1.4-1.5,1.8-3.8,2.9-5.7C201.2,109.5,202.2,107.9,203.1,106z M193,125.8
				c-0.2,0.5-0.6,1.8-1.2,2.3C191.5,127.2,192.3,126.4,193,125.8z M185.9,138.8c0.1,0.5-0.2,1.2-0.4,1.8
				C184.6,140.4,185.8,139.4,185.9,138.8z M191.4,128.4c0.9,0.4-0.9,2.7-1.4,3C189.8,130.7,191,129.4,191.4,128.4z M212.1,89.1
				c0.1,1-0.5,1.4-1.1,2.3C210.7,90.8,211.8,89.8,212.1,89.1z M221.6,70.9c0.5,0.6-0.3,0.9-0.6,1.4c-1,2-2.4,4.7-3.5,6.6
				c-1-1,0.5-1.6,0.8-2.2C219.2,75.1,220.1,73.4,221.6,70.9z M204.7,103.1c0.6,0.7-1,3-1.4,2.4C204,105.1,204,104.2,204.7,103.1z
				 M210.5,91.7c0.6,0.3-0.1,1.3-0.6,1.4C209.5,92.8,210.4,92.2,210.5,91.7z M140.2,170.9c0.3-0.6,0.3,0.5,0.5,0.6
				C140.4,172.1,140.4,171,140.2,170.9z M69.5,41c0.2-0.3,0.9,0.7,1.2,0.6c-0.1-0.5-0.2-1.1-0.5-1.6c0.3-1.1,0.4,1.5,0.9,1.8
				C70.8,42.1,70,42.4,69.5,41z M64.1,32.3c-0.1-2.3,1,0.7,1.7,2.1C65.8,35.3,64.6,32.7,64.1,32.3z M71.3,37.7
				c0.7,1.1,1.5,2.1,1.4,3.4C72.5,39.9,71.1,39.1,71.3,37.7z M65.9,31.1c0.2-0.8,1.4,2,1.7,2.9c0.6,0.8,0.7,0.2,1.2,1.7
				C68.1,36,66.6,32.5,65.9,31.1z M71.1,40.9c0.2-0.7,0.7,1,1.1,1.2c0.1,0.1,0.2-0.6,0.2-0.5c0.4,0.3,0.4,1.1,0.7,1.4
				c0.2,0.2,0.6-0.8,1.3,0.7c0.2,1.6-0.5,0-0.9-0.5c0.1,1.5-0.5,1,0.2,2.4c-0.3,1.1-0.4-1.1-0.6-1.4c-0.3-0.5-0.1,0.6-0.2,0.5
				c-0.3-0.2-0.9-2.4-1.6-2.7C71.4,41.7,71.3,41.3,71.1,40.9z M83.2,58.8c1,1.8,1.5,0.9,2.7,3.4c-0.3,0.5,0.1,1.1,0.5,1.6
				c-0.9,0.5-2-1.3-2.6-3.6c-0.1,0.9,0.2,1.6-0.3,1.7c0.9,1.1,3.3,4.9,2.9,6.9c-0.8-1.3-0.9-2.7-1.7-4.1c-0.2-0.5-0.9-0.2-0.4,0.6
				c-0.7-0.5-1.5-1.9-2.3-3.4c-0.8-1.5-1.6-2.9-2.2-3.3c0.5-0.8,1.5,1,2,1.3c0.3-0.5-0.5-2.6-0.7-2c-0.6-2.1,0.9,0.4,1.3,1.2
				c0.3,1.2-0.3,0.9-0.5,1.4c0.8,1,1.1,2.1,1.7,3.2c0.4-1-0.5-1.8-0.6-2.3c0-0.2,0.4,0,0.3-0.4c-0.1-0.4-0.8-1.1-0.4-2
				C83.1,59.5,83.1,59,83.2,58.8z M70.9,34.3c1,1.2,1.8,1.1,2.7,1.9c0.6,0.6,0.3,1.2,1,1.4c1.3,0.5,3.5,3.5,6.3,7.2
				c0.2,0.9,0.8,1.7,0.8,2.5c-0.1,1.8-1.5-1.1-1,1.5c-0.9-0.7-1-1.8-1.9-2.4c-0.1,1.6,1.3,3.1,2.2,4.6c-0.1,0.7-0.4,0.4-0.4,1.1
				c-1-3.1-2.6-4.2-4.2-6.8c-0.1-1,0.4-0.3,0.7,0.2c0.5,0.5,0.8-0.2,1-0.6c-0.8-2.4-0.8-0.8-1.2-1c-1.8-2.8-3.4-6.5-4.9-7.4
				C71.7,35.8,71.4,35,70.9,34.3z M75.5,40.3c0,0.7,0.5,1.2,0.7,1.9c0.2-1.4-0.9-2.5-1.6-3.7C72.9,36.1,74.8,39.5,75.5,40.3z
				 M81.4,55.1c-0.1,0.3-0.5-0.4-0.5,0.1c-0.1,0.8,0.9,1.5,1.2,2.3c0.1-0.4-0.2-0.7-0.4-1c0.1-1.3,0.8-0.7-0.2-2.1
				c0.6-0.2,0.7,0.4,1.4,1.7c0.2,0.3-0.5-0.3-0.5-0.3c-0.1,0.2,1.3,1.8,1.5,2.4c0,0.9-0.4,0.2-0.8-0.3c-0.8,0.4-1.9-0.2-3.3-2.4
				c0.1-0.1,0.3-0.3,0.3-0.8c-0.5-0.2-0.6,1.2-1.4-0.4c0.2-0.9,0.1-1.7-0.5-2.5c0.4-1.9,1.5,0.7,2.4,1.4c-0.1,1-0.4,0.2-0.2,1.5
				C80.8,54.9,80.8,53.7,81.4,55.1z M64.1,36c0-0.3,0-0.5,0.1-0.8c0.1,0,0.3,0.1,0.3-0.4c0.6,0.9,1.2,1.8,1.7,2.5
				c0.8,1.2,1.6,2.4,1.8,4c-0.5-0.5-0.5-1.6-1.1-2l0.1,1.5c0.7,2.5,1.2,1.9,2.3,3.8c0.3,2.1-0.6-0.2-0.9-0.6
				c-0.3-0.3-0.6-0.2-0.9-0.5c-0.5-0.5-1-1.3-1.5-2c-0.5-0.6-1-1.6-1.2-1c0,0,0,0,0,0.1c-0.3-0.3-0.2-0.7-0.2-1.4
				c0.1-0.3,0.1-0.6,0-1.3c0.1,0.6,0.2,0.9,0.5,1.5c0.2,0.5,0.5,1,0.7,1.4c0.5,0.8,1,1.4,1.3,1.5c-0.3-1.6-0.8-3.1-1.5-4.3
				c0,1.1,0.3,1.9,0.8,2.4c-0.3,0.1-0.7-0.7-1.1-1.8c-0.2-0.5-0.4-1.1-0.6-1.7l-0.2-0.4c0-0.1-0.1-0.2-0.1-0.3
				c-0.1-0.2-0.2-0.3-0.3-0.4C64.2,35.8,64.1,35.9,64.1,36z M86.5,63.2c1.2,0,0.9,2.3,2.2,4c-0.8-1.8-0.1-1.7,0.8-0.5
				c-0.6,1.2,0.7,1.7,0.7,3.4c-0.2,0-1.2-0.5-0.4,0.8c-0.6,0.8-1.1-1.4-1.7-2.3c0.4-0.5,1.1,1.5,1.4-0.1c-0.2-0.3-0.3,0.1-0.4,0.2
				l-1.4-2.3c-0.3-0.5-0.1,1.9-1,0.2C86.6,65,88.2,65.7,86.5,63.2z M59.6,42.1c-0.5,1.1-0.6-0.4-0.9,1.7
				C58.3,42.3,59.5,40.7,59.6,42.1z M12,209.8c0,0.8-1.5,1.8-2,2.7C10,211.7,11.5,210.7,12,209.8z M59.7,43.4
				c0.1-1.3,0.4-2.6,0.2-4.2c0.5-1.2,1-3,1.3-1.5c-0.4-0.2-0.9,2-1.1,3.3c0.1,0.4,0.2-0.1,0.3-0.2C60.4,42,60.1,43.6,59.7,43.4z
				 M0.5,204.8c-0.3-0.3-0.1-0.7,0.3-1c-0.5-0.5-0.6,0-0.7-0.6c0.2-0.9,0.9-1.6,1.5-2.4c0.8-1.3,1.4-2.7,2.3-4
				c0.2-0.3,0.6-0.3,0.6-0.4c1.4-1.9,2.2-4.1,3.3-6.1c0.2-0.4,0.8-0.6,1-1c0.1-0.2,0-0.8,0.1-1c0.2-0.3,0.6-0.5,0.8-0.8
				c0.8-1.4,1.6-3.2,2.6-4.7c0.5,0.5,0.7,0,1.2,0.4c0.2-1-0.5-0.2-1-0.6c0.7-1.6,1.3-2.2,1-3.2c-0.2-0.7,0.5-0.5,0.7-0.7
				c0.3-0.4-0.2-1.2,0.8-1.4c-1.5-0.5-0.1-0.8-0.3-1.5c-0.4,0.3-1,0.2-1.5,0.3c0.2,0.5,0.8,0.3,1,1.1c-0.2,0.7-0.8,0.5-1,1.3
				l-0.8-0.5c-0.5,0.6,1.1,0.7,0.7,1.7c-0.4-0.2-0.3-0.5-0.7-0.7c-0.6,0.7,0.2,1.5-0.7,1.7c0.1,0.8,0.3,1.6-0.5,2.7
				c-0.2-0.5-0.1-1,0.1-1.6c-0.4,0-0.7,0.3-1.1,0.4c-0.2,0.4,0.5,0.1,0.5,0c0.3,0.3-0.2,0.4-0.1,0.7c0,0.4,0.9,0.9-0.2,1.2
				c-0.7-0.1,0-0.6,0-0.8c-0.1-0.3-0.8-0.4-0.6-0.9c-1.3,0.3-1,1-1.6,1.7c1,0.6,0.6-0.7,1.2-0.6c1,0.3,0.1,1,0.5,1.4
				c-0.6,0.5-0.4-0.1-1.1-0.4c-0.6,0.1-1.3-0.1-1.7,0.8c-0.7-0.5-0.9-1.5,0-1.3c0.1-0.6-0.7,0.3-1.1-0.5c-0.3-0.7,0.6-0.9,0.8-1.3
				c0.1-0.2,0-0.5,0.3-0.9c0.6-0.9,1.5-1.7,2.1-2.7c0.2-0.4,0.1-0.6,0.2-0.9c0.9-1.4,2.1-3,2.7-4.5c0.3-0.6,0.7-1,1-1.5
				c0.5-0.8,1-1.7,1.6-2.5c0.5-0.9,1-1.7,1.5-2.6c1-1.7,2-3.5,3.1-5.1c0.2-0.3,0.6-0.4,0.8-0.7c0.6-0.7,0.6-1.5,1-2.4
				c0.3-0.7,0.8-0.8,0.7-1.8c0.2-0.7,0.8-0.3,1.1-0.8c0-1.3,1.2-2.3,1.1-3.7c0.1-0.4,0.9,0.3,0.5,0.7c1.1-0.5,0.4-2.1,0-2.1
				c0.5-0.8,0.9-1.8,1.9-1.6c-0.6-1.4,1.8-2.7,0.9-4.1c-0.1-0.5,0.6-0.4,0.7-0.5c0.1-0.2-0.1-0.5,0-0.8c0.5-0.9,1.6-2.6,2.1-4
				c0.1-0.3,0.3-1.2-0.1-1.3c0.1-0.3,0.5-0.1,0.8,0c0.2-1.4,0.5-2.4,1-3.3c0.1-0.2-0.2-0.3-0.4-0.4c0.7-0.8,0.2-1.4,1-1.8
				c0.3-0.5-0.3-0.5-0.2-0.9c0.4-0.5,0.9-1.5,1.2-2.5c0.2-0.6,0.3-1.8,0.4-2.2c0.1-0.5-0.1-1.1-0.1-1.6c0.3-1.8,0.9-3.6,1.4-5.1
				c0.5-1.4-0.1-3.2,1.1-3.9c0-0.4-0.3-0.7-0.2-1.1c0.1-0.4,0.4-0.4,0.4-0.7c0.1-0.6-0.1-1.5,0.1-2.1c0.3-1.4,1.1-2.6,1.3-4.1
				c0.1-0.4-0.1-0.5,0-0.8c0.1-0.4,0.5-0.8,0.6-1.2c0.1-0.3-0.2-0.8-0.2-1.1c0-0.1,0.3-0.4,0.4-0.7c0.1-0.4-0.1-0.6,0-1.1
				c0.1-0.5,0.3-1,0.4-1.5l0.2-0.7c0.1-0.3,0.2-0.6,0.3-0.9c0.5-1.7,0.9-3.4,1.2-4.9c0.1-0.7,0.4-0.6,0.6-1.2c0.3-1.6,0-4.1,1.4-6.2
				c-0.2-2.2,1.1-4.3,1.8-7.5c0.4,0.4-0.3,1.5,0.2,1.9c0.3-1,0.1-1.6-0.1-2.3c0.6-0.5,0.9-2.7,1.4-4.1c0.3-0.9-0.4-1.1-0.2-2
				c0.5-2.3,1.3-4.2,1.9-6.1c0.7-1.9,1.2-3.7,1.7-5.6c0.3-1,0.2-2.1,0.5-3c0.8-2.7,1.9-4.8,2.7-7.2c0.3-0.7,0.4-2.1,0.7-2.7
				c0.3-0.7,0.6-0.5,0.9-1.2c0.3-0.6,0.3-1.6,0.6-2.4c1-2.9,2.3-5.8,3.5-8.5c0.4,1.1-0.5,1.7-0.8,3.2c-0.2,0.9-0.3,4.5-0.9,2.7
				c-0.5,1.1,0.1,2.4-0.4,3.5c-0.2-0.7-0.4-0.8-0.6-0.5c0.3,0.7,0.1,3.1-0.7,2.7c0.3,1.9,0.7-0.8,1,0.8c-0.8,2.8-1.2,3.7-1.8,6
				c0.4,1.7,0.8-1,1.2,1.1c-0.6,0.8-0.8,2.2-1,3.4c-0.2,1.2-0.5,2.2-1.2,2.4c-0.2,0.9,0,1.3,0.3,1.4c-0.1,1.3-0.8,0.5-0.5,1.4
				c-0.3,0.8-0.3-1.3-0.5-1.7c-0.5,3.3-0.8,5.2-2,7.7c0.2,0.3,0.3-0.2,0.4-0.5c-0.2,0.7-0.5,2-0.8,3.4c-0.3,1.4-0.8,2.7-1.3,3.4
				c-0.5,1.3,0.4,1.8-0.1,3c-0.4,0.2-0.7,0.9-1,1.9c-0.3,0.6-0.1,0.9,0.2,1.2c-0.3,0.8-1,1.7-0.4,2.5c0.5,0.1,0.7-2.1,1-2.8
				c0.5,0.6,0.9,0.7,1.1-0.3c0-0.3-0.1-0.6,0-0.9c-0.3,0-0.4,0.6-0.8,0.1c1.5-4.4,2.5-7.6,3.4-10.9c0.4-1.6,0.9-3.1,1.5-4.8
				c0.5-1.6,1.1-3.4,1.9-5.2c0.3,0.1,0.3,0.4,0.4,1.1c0.7-2.2,1.2-4.3,1.9-5.7c0.1-0.5-0.2-1,0-1.5c0.4-0.7,0.8-1.5,1.2,0.4
				c0.2-1.3,0.2-1.4-0.2-2.3c0.2-0.1,0.4,0.6,0.6-0.2c0.4,1.7,0,3,0,4.4c-0.6,0.4-0.5,0.6-1.1,2.5c-0.6-0.9,0.3-1.3,0-2.1
				c-0.5-0.3-0.9,2.5-0.2,2.8c-0.5,0.9-0.3,2.7-0.8,2.6c-0.3-0.6-0.1-1.2,0.1-1.7c-0.5-0.5-0.8,1.9-0.4,2.7
				c-0.7,1.3-1.3,3.1-1.8,5.5c-0.4,0.8-0.8,0.6-1.2,1.4c-0.1,0.4,0.2,0.8,0.1,1.3c-0.5,1.5-1,3.4-1.5,5.2c-0.5,1.8-1,3.4-1.6,4.5
				c-0.7-0.4,0-1.5,0.1-2.2c-1,0.5-0.5,2.9-0.3,3.9c-0.8,2-1.5,3.8-2,5.8c-0.5,1.9-1,3.9-1.5,6.2c-0.5,0.1-0.4,1-0.8,0
				c-0.6,1,0.1,1.1,0.1,1.7c-0.5,1.4-1,2.9-1.5,4.4c-0.3,1.1-0.6,2-0.7,3c-0.1,1-0.3,2.2-0.6,3c-0.2,0.8-0.6,1.2-0.8,1.9
				c-0.1,0.4,0,0.9-0.1,1.3c-0.1,0.4-0.6,0.5-0.7,0.9c-0.1,0.3-0.4,2.4-0.3,3.1c0,0.3,0.4,0.3,0.3,0.6c-0.5,0.5-0.5,0.8-0.7,1.7
				c-0.2,0.8-0.8,0.9-0.2,1.5c-0.2,0.8-0.8,0.7-0.9,1.6c0.3,0,0.3-0.4,0.4-0.7c0.8,0.5,0,1-0.2,1.5c-0.8,3.1-1.3,5.9-2.7,9.5
				c-0.4,1.1-1,3.2-1.4,4.8c-0.1,0.4-0.4,0.4-0.5,0.9c-0.2,1,0,2.4-1,2.6c0.5,0.4,0,2.6-0.5,3c-0.1,0.1-0.2-0.7,0-0.8
				c-0.4-0.2-0.8,1.2-0.1,1c-0.5,0.3-0.9,0.8-1.1,1.7c0.2,0.1,0.3-0.2,0.4-0.4c0.2,1.1-0.9,2.9-1.2,4.3c-0.9,0.7-1.7,1.5-2.2,3.2
				c0.5,0,0.5-1.2,1.2-0.6c-0.7,1.3,0.1,1.8-0.6,3.2c-0.4,0.8-1.1,1.6-1.5,2.6c-0.2-0.1,0-0.5,0-0.8c-0.8,0.3-0.6,1.5,0.3,1.2
				c-0.1,0.6-0.4,0.8-0.8,0.8c0.1,1.6-1.3,3.6-1.7,5.4c-0.3-1-1.3,0.6-1,1.2c0.9,0.2-0.1-1.4,0.8-0.7c-0.9,2.2-2.2,4.8-2.8,6.3
				c-0.3-0.2-0.5,0-0.8-0.1l0.3,1c-0.4,1-1,1.9-1.4,2.9c-0.6,1.6-1.8,3.2-2.8,4.9c-0.2,0.4-0.3,1-0.5,1.4c-0.5,0.9-1.2,2.1-2,3.4
				c-0.8,1.3-1.5,2.6-2.1,3.7c-0.4,0.7-0.4,1.4-0.7,2.1c-0.7,1.4-1.7,2.5-2.5,3.8c-1,1.6-1.8,3.3-2.8,4.7c-0.2,0.4-0.5,0.2-0.8,0.6
				c-0.3,0.4-0.2,0.7-0.4,0.9c-0.4,0.5-1.3,0.7-1,1.6c-1.9,2.2-2,2.6-4,4.7c-0.3-0.3-0.2-0.6-0.6-0.8l1.2-1.4c0.4-0.4-0.6-0.6-0.8-1
				c-0.4,0.3,0.1,0.5-0.1,0.8c-0.3,0.5-0.4-0.1-0.7,0c-0.4,0.2-0.2,0.6-0.3,0.7C1.2,204.7,0.4,204.1,0.5,204.8z M50.6,79.5
				c0.2-0.8,1.2-0.3,0.8-1.9C51.3,78.4,50.2,78,50.6,79.5z M53,59.8c0.4-0.3,0.8-1.3,1.1-1.8c-0.4-1.5-1.5-0.2-1.4,0.4
				C53.2,57.5,52.8,59.5,53,59.8z M50.1,60c0.4,0.9,1.5-1.3,1.4-2.5C51,58,50.6,58.3,50.1,60z M46.2,74.8c0.4-0.8,1.5-2.8,1-4
				C47,72.6,46.1,72.9,46.2,74.8z M47.7,89.1c0.6-0.1,0.7-3.5,0.3-3C48.3,86.9,47.3,88.5,47.7,89.1z M38.2,109.4
				c0.4-0.6,0.6-1.2,0.2-1.8C38.1,108.2,37.4,109.1,38.2,109.4z M36.7,117c0.6,0.1-0.1-0.7-0.3-0.9l-0.6,2.2
				C36.6,118.8,36.4,117.4,36.7,117z M30.1,146.6c0.4-0.7,0-1.1-0.3-1.4C29.7,145.8,29.5,146.4,30.1,146.6z M31.8,148.5
				c0-0.9,1.9-2.5,0.8-3.1c-0.6,0.8-0.2,0.3,0,0.8C33,147.1,30.3,147.9,31.8,148.5z M30.4,153.8c0.6-0.3,0.6-1.4-0.2-1.6
				C29.7,153,30.2,153.3,30.4,153.8z M29.8,154.1c-0.2,0.7-0.8,0.5-1,1.2C29.4,155.9,30.2,154.5,29.8,154.1z M20.8,161.7
				c0.1-0.3,0.3-0.6,0.4-0.9C20.3,160.1,19.9,161.7,20.8,161.7z M19.6,165.1c0.2-1.3,1.4-0.2,1.6-1.4c-0.7-0.3-1,0.4-1.6,0.6
				c-0.8,0,0.1-0.8-0.7-0.8C18.6,164.3,19.2,164.6,19.6,165.1z M14.2,170.9l-0.4,0.8C14.5,172.3,15.1,171.1,14.2,170.9z M15.7,173.2
				c0.3-0.6,0.5-1.1,0.2-1.5c-0.2,0.2-0.4,0.2-0.6,0.2C15.1,172.5,15.2,172.9,15.7,173.2z M8.2,182.8c-0.7,0.1-1.4-0.1-1.9,0.4
				c0.5,0.8,1-0.1,1.3-0.3c0.1,0,0.3,0.3,0.4,0.3c0,0,0.5-0.3,0.4-0.3c0.3-0.2,0.4-0.5,0.7-0.6C8.6,181.7,8.5,182.5,8.2,182.8z
				 M8.4,181l0.6-1C8.5,179.4,7.6,181,8.4,181z M10.9,180.1c-1.1-0.4-0.7,0.9-1.6,0.9c0.5,0.2-0.1,0.7,0.3,1
				C10.3,181.4,10.1,180.8,10.9,180.1z M10,177.5c-0.5,0.3,0,0.7-0.2,1.2c-0.1,0.2-1.3,0.6-0.4,1.1C10,179.6,10.8,177.9,10,177.5z
				 M12.1,174.5c-0.1,0.6-0.4,1.1,0.3,1.5C12.6,175.4,12.8,174.8,12.1,174.5z M5.7,198.3c0.4,0.2,0.9,0.6,1.2,0
				c-0.2-0.6-0.2-0.9-1-1.1C5.4,197.7,6,197.9,5.7,198.3z M4.7,201.7c0.2-0.2,0.4-0.1,0.7-0.1c-0.2,0.2-0.3,0.5,0,0.3
				c-0.1-0.7,0.7-0.5,1-1.3c-0.8-0.7-1,0.3-1.3,0.8C5,201.2,4.5,201.3,4.7,201.7z M62.2,42c0.6-1.8,0.5-3.1,0.9-5.5
				c0.5-0.1,0.9,0.3,1.3,0.8c0,2.6-0.5,4.7-0.8,6.8c0-1.6,0.1-3.1,0.5-4.4c-0.2-1.5-0.4-1.3-0.7-0.2c0.1,1.4,0,3.9-0.3,5.5
				c-0.3,1.6-0.7,2.4-1.1,0.7c0.3-0.8,0.5-0.1,0.6-1.7c-0.4-0.4-0.7,0.8-1,2c-0.3,1.2-0.5,2.4-0.9,2l0.4,1.8
				c0.5-0.9,0.4-2.1,0.8-3.1c0.7,2.1-0.5,5.4-0.9,4.2c-0.2,1.4-0.5,2.2-0.9,2.6c-0.1-1.1,0.2-1.9,0-3.1c0.2-0.6,0.4,1.3,0.6,0.4
				c0.1-0.6-0.3-1.5-0.1-2c-0.2-0.5-0.4,0.5-0.6,0.9c-0.3-2.3,0.2-4.1,0.6-5.4C61.1,43.1,61.8,43.3,62.2,42z M61,35.9l0.4-1.1
				c-0.1,2.1,0.3,0.4,0.5,2.1C61.6,38.1,61.3,36.9,61,35.9z M59.4,44.9c-0.5,1.1-0.4,1.3-0.8,1.7C58.4,45.9,59.3,43,59.4,44.9z"/>
		</g>
	</g>
</g>
</svg>
